G04 #@! TF.GenerationSoftware,KiCad,Pcbnew,(5.0.1)-3*
G04 #@! TF.CreationDate,2022-08-31T13:01:13+05:45*
G04 #@! TF.ProjectId,Relay-board,52656C61792D626F6172642E6B696361,rev?*
G04 #@! TF.SameCoordinates,Original*
G04 #@! TF.FileFunction,Legend,Bot*
G04 #@! TF.FilePolarity,Positive*
%FSLAX46Y46*%
G04 Gerber Fmt 4.6, Leading zero omitted, Abs format (unit mm)*
G04 Created by KiCad (PCBNEW (5.0.1)-3) date 8/31/2022 1:01:13 PM*
%MOMM*%
%LPD*%
G01*
G04 APERTURE LIST*
%ADD10C,0.300000*%
%ADD11C,0.200000*%
%ADD12C,0.010000*%
G04 APERTURE END LIST*
D10*
X157657142Y-84631428D02*
X157585714Y-84560000D01*
X157442857Y-84488571D01*
X157085714Y-84488571D01*
X156942857Y-84560000D01*
X156871428Y-84631428D01*
X156800000Y-84774285D01*
X156800000Y-84917142D01*
X156871428Y-85131428D01*
X157728571Y-85988571D01*
X156800000Y-85988571D01*
X156157142Y-85417142D02*
X155014285Y-85417142D01*
X153442857Y-85845714D02*
X153514285Y-85917142D01*
X153728571Y-85988571D01*
X153871428Y-85988571D01*
X154085714Y-85917142D01*
X154228571Y-85774285D01*
X154300000Y-85631428D01*
X154371428Y-85345714D01*
X154371428Y-85131428D01*
X154300000Y-84845714D01*
X154228571Y-84702857D01*
X154085714Y-84560000D01*
X153871428Y-84488571D01*
X153728571Y-84488571D01*
X153514285Y-84560000D01*
X153442857Y-84631428D01*
X152800000Y-85988571D02*
X152800000Y-84488571D01*
X152157142Y-85988571D02*
X152157142Y-85202857D01*
X152228571Y-85060000D01*
X152371428Y-84988571D01*
X152585714Y-84988571D01*
X152728571Y-85060000D01*
X152800000Y-85131428D01*
X150800000Y-85988571D02*
X150800000Y-85202857D01*
X150871428Y-85060000D01*
X151014285Y-84988571D01*
X151300000Y-84988571D01*
X151442857Y-85060000D01*
X150800000Y-85917142D02*
X150942857Y-85988571D01*
X151300000Y-85988571D01*
X151442857Y-85917142D01*
X151514285Y-85774285D01*
X151514285Y-85631428D01*
X151442857Y-85488571D01*
X151300000Y-85417142D01*
X150942857Y-85417142D01*
X150800000Y-85345714D01*
X150085714Y-84988571D02*
X150085714Y-85988571D01*
X150085714Y-85131428D02*
X150014285Y-85060000D01*
X149871428Y-84988571D01*
X149657142Y-84988571D01*
X149514285Y-85060000D01*
X149442857Y-85202857D01*
X149442857Y-85988571D01*
X148728571Y-84988571D02*
X148728571Y-85988571D01*
X148728571Y-85131428D02*
X148657142Y-85060000D01*
X148514285Y-84988571D01*
X148300000Y-84988571D01*
X148157142Y-85060000D01*
X148085714Y-85202857D01*
X148085714Y-85988571D01*
X146800000Y-85917142D02*
X146942857Y-85988571D01*
X147228571Y-85988571D01*
X147371428Y-85917142D01*
X147442857Y-85774285D01*
X147442857Y-85202857D01*
X147371428Y-85060000D01*
X147228571Y-84988571D01*
X146942857Y-84988571D01*
X146800000Y-85060000D01*
X146728571Y-85202857D01*
X146728571Y-85345714D01*
X147442857Y-85488571D01*
X145871428Y-85988571D02*
X146014285Y-85917142D01*
X146085714Y-85774285D01*
X146085714Y-84488571D01*
X145300000Y-85417142D02*
X144157142Y-85417142D01*
X142585714Y-85988571D02*
X143085714Y-85274285D01*
X143442857Y-85988571D02*
X143442857Y-84488571D01*
X142871428Y-84488571D01*
X142728571Y-84560000D01*
X142657142Y-84631428D01*
X142585714Y-84774285D01*
X142585714Y-84988571D01*
X142657142Y-85131428D01*
X142728571Y-85202857D01*
X142871428Y-85274285D01*
X143442857Y-85274285D01*
X141371428Y-85917142D02*
X141514285Y-85988571D01*
X141800000Y-85988571D01*
X141942857Y-85917142D01*
X142014285Y-85774285D01*
X142014285Y-85202857D01*
X141942857Y-85060000D01*
X141800000Y-84988571D01*
X141514285Y-84988571D01*
X141371428Y-85060000D01*
X141300000Y-85202857D01*
X141300000Y-85345714D01*
X142014285Y-85488571D01*
X140442857Y-85988571D02*
X140585714Y-85917142D01*
X140657142Y-85774285D01*
X140657142Y-84488571D01*
X139228571Y-85988571D02*
X139228571Y-85202857D01*
X139300000Y-85060000D01*
X139442857Y-84988571D01*
X139728571Y-84988571D01*
X139871428Y-85060000D01*
X139228571Y-85917142D02*
X139371428Y-85988571D01*
X139728571Y-85988571D01*
X139871428Y-85917142D01*
X139942857Y-85774285D01*
X139942857Y-85631428D01*
X139871428Y-85488571D01*
X139728571Y-85417142D01*
X139371428Y-85417142D01*
X139228571Y-85345714D01*
X138657142Y-84988571D02*
X138300000Y-85988571D01*
X137942857Y-84988571D02*
X138300000Y-85988571D01*
X138442857Y-86345714D01*
X138514285Y-86417142D01*
X138657142Y-86488571D01*
X137371428Y-85417142D02*
X136228571Y-85417142D01*
X135657142Y-84988571D02*
X135300000Y-85988571D01*
X134942857Y-84988571D01*
X133585714Y-85988571D02*
X134442857Y-85988571D01*
X134014285Y-85988571D02*
X134014285Y-84488571D01*
X134157142Y-84702857D01*
X134300000Y-84845714D01*
X134442857Y-84917142D01*
X132942857Y-85845714D02*
X132871428Y-85917142D01*
X132942857Y-85988571D01*
X133014285Y-85917142D01*
X132942857Y-85845714D01*
X132942857Y-85988571D01*
X131442857Y-85988571D02*
X132300000Y-85988571D01*
X131871428Y-85988571D02*
X131871428Y-84488571D01*
X132014285Y-84702857D01*
X132157142Y-84845714D01*
X132300000Y-84917142D01*
X148178571Y-45233571D02*
X147821428Y-46733571D01*
X147535714Y-45662142D01*
X147250000Y-46733571D01*
X146892857Y-45233571D01*
X146392857Y-46305000D02*
X145678571Y-46305000D01*
X146535714Y-46733571D02*
X146035714Y-45233571D01*
X145535714Y-46733571D01*
X144178571Y-46733571D02*
X144678571Y-46019285D01*
X145035714Y-46733571D02*
X145035714Y-45233571D01*
X144464285Y-45233571D01*
X144321428Y-45305000D01*
X144250000Y-45376428D01*
X144178571Y-45519285D01*
X144178571Y-45733571D01*
X144250000Y-45876428D01*
X144321428Y-45947857D01*
X144464285Y-46019285D01*
X145035714Y-46019285D01*
X143535714Y-46733571D02*
X143535714Y-45233571D01*
X142678571Y-46733571D01*
X142678571Y-45233571D01*
X141964285Y-46733571D02*
X141964285Y-45233571D01*
X141250000Y-46733571D02*
X141250000Y-45233571D01*
X140392857Y-46733571D01*
X140392857Y-45233571D01*
X138892857Y-45305000D02*
X139035714Y-45233571D01*
X139250000Y-45233571D01*
X139464285Y-45305000D01*
X139607142Y-45447857D01*
X139678571Y-45590714D01*
X139750000Y-45876428D01*
X139750000Y-46090714D01*
X139678571Y-46376428D01*
X139607142Y-46519285D01*
X139464285Y-46662142D01*
X139250000Y-46733571D01*
X139107142Y-46733571D01*
X138892857Y-46662142D01*
X138821428Y-46590714D01*
X138821428Y-46090714D01*
X139107142Y-46090714D01*
X138178571Y-46590714D02*
X138107142Y-46662142D01*
X138178571Y-46733571D01*
X138250000Y-46662142D01*
X138178571Y-46590714D01*
X138178571Y-46733571D01*
X138178571Y-46162142D02*
X138250000Y-45305000D01*
X138178571Y-45233571D01*
X138107142Y-45305000D01*
X138178571Y-46162142D01*
X138178571Y-45233571D01*
X137464285Y-46590714D02*
X137392857Y-46662142D01*
X137464285Y-46733571D01*
X137535714Y-46662142D01*
X137464285Y-46590714D01*
X137464285Y-46733571D01*
X137464285Y-46162142D02*
X137535714Y-45305000D01*
X137464285Y-45233571D01*
X137392857Y-45305000D01*
X137464285Y-46162142D01*
X137464285Y-45233571D01*
X150321428Y-49283571D02*
X150321428Y-47783571D01*
X150321428Y-48497857D02*
X149464285Y-48497857D01*
X149464285Y-49283571D02*
X149464285Y-47783571D01*
X148750000Y-49283571D02*
X148750000Y-47783571D01*
X147250000Y-47855000D02*
X147392857Y-47783571D01*
X147607142Y-47783571D01*
X147821428Y-47855000D01*
X147964285Y-47997857D01*
X148035714Y-48140714D01*
X148107142Y-48426428D01*
X148107142Y-48640714D01*
X148035714Y-48926428D01*
X147964285Y-49069285D01*
X147821428Y-49212142D01*
X147607142Y-49283571D01*
X147464285Y-49283571D01*
X147250000Y-49212142D01*
X147178571Y-49140714D01*
X147178571Y-48640714D01*
X147464285Y-48640714D01*
X146535714Y-49283571D02*
X146535714Y-47783571D01*
X146535714Y-48497857D02*
X145678571Y-48497857D01*
X145678571Y-49283571D02*
X145678571Y-47783571D01*
X144035714Y-47783571D02*
X143535714Y-49283571D01*
X143035714Y-47783571D01*
X142250000Y-47783571D02*
X141964285Y-47783571D01*
X141821428Y-47855000D01*
X141678571Y-47997857D01*
X141607142Y-48283571D01*
X141607142Y-48783571D01*
X141678571Y-49069285D01*
X141821428Y-49212142D01*
X141964285Y-49283571D01*
X142250000Y-49283571D01*
X142392857Y-49212142D01*
X142535714Y-49069285D01*
X142607142Y-48783571D01*
X142607142Y-48283571D01*
X142535714Y-47997857D01*
X142392857Y-47855000D01*
X142250000Y-47783571D01*
X140250000Y-49283571D02*
X140964285Y-49283571D01*
X140964285Y-47783571D01*
X139964285Y-47783571D02*
X139107142Y-47783571D01*
X139535714Y-49283571D02*
X139535714Y-47783571D01*
X138678571Y-48855000D02*
X137964285Y-48855000D01*
X138821428Y-49283571D02*
X138321428Y-47783571D01*
X137821428Y-49283571D01*
X136535714Y-47855000D02*
X136678571Y-47783571D01*
X136892857Y-47783571D01*
X137107142Y-47855000D01*
X137250000Y-47997857D01*
X137321428Y-48140714D01*
X137392857Y-48426428D01*
X137392857Y-48640714D01*
X137321428Y-48926428D01*
X137250000Y-49069285D01*
X137107142Y-49212142D01*
X136892857Y-49283571D01*
X136750000Y-49283571D01*
X136535714Y-49212142D01*
X136464285Y-49140714D01*
X136464285Y-48640714D01*
X136750000Y-48640714D01*
X135821428Y-48497857D02*
X135321428Y-48497857D01*
X135107142Y-49283571D02*
X135821428Y-49283571D01*
X135821428Y-47783571D01*
X135107142Y-47783571D01*
D11*
X116000000Y-72000000D02*
X116000000Y-43000000D01*
X160500000Y-72000000D02*
X116000000Y-72000000D01*
X160500000Y-70500000D02*
X160500000Y-72000000D01*
X175000000Y-70500000D02*
X160500000Y-70500000D01*
X175000000Y-43000000D02*
X175000000Y-70500000D01*
X116000000Y-43000000D02*
X175000000Y-43000000D01*
D12*
G04 #@! TO.C,G\002A\002A\002A*
G36*
X147001103Y-77967602D02*
X146953580Y-77967796D01*
X146916399Y-77968183D01*
X146888383Y-77968815D01*
X146868352Y-77969744D01*
X146855129Y-77971023D01*
X146847535Y-77972703D01*
X146844391Y-77974838D01*
X146844359Y-77977105D01*
X146846520Y-77983870D01*
X146852182Y-78001917D01*
X146861082Y-78030400D01*
X146872957Y-78068470D01*
X146887544Y-78115280D01*
X146904578Y-78169984D01*
X146923797Y-78231734D01*
X146944939Y-78299684D01*
X146967738Y-78372985D01*
X146991933Y-78450790D01*
X147017260Y-78532253D01*
X147043456Y-78616527D01*
X147070258Y-78702763D01*
X147097402Y-78790116D01*
X147124625Y-78877737D01*
X147151664Y-78964780D01*
X147178255Y-79050397D01*
X147204137Y-79133742D01*
X147229044Y-79213966D01*
X147252715Y-79290223D01*
X147274885Y-79361666D01*
X147295292Y-79427447D01*
X147313673Y-79486720D01*
X147329763Y-79538637D01*
X147343301Y-79582350D01*
X147354022Y-79617014D01*
X147361663Y-79641780D01*
X147365962Y-79655801D01*
X147366695Y-79658237D01*
X147368288Y-79661162D01*
X147371994Y-79663527D01*
X147379046Y-79665389D01*
X147390675Y-79666808D01*
X147408113Y-79667844D01*
X147432592Y-79668556D01*
X147465344Y-79669002D01*
X147507601Y-79669244D01*
X147560595Y-79669338D01*
X147597641Y-79669350D01*
X147825326Y-79669350D01*
X147843719Y-79653873D01*
X147858710Y-79637341D01*
X147871394Y-79617061D01*
X147872732Y-79614185D01*
X147876052Y-79604516D01*
X147882505Y-79583766D01*
X147891763Y-79553072D01*
X147903500Y-79513572D01*
X147917387Y-79466404D01*
X147933097Y-79412706D01*
X147950303Y-79353617D01*
X147968677Y-79290273D01*
X147987891Y-79223813D01*
X148007619Y-79155374D01*
X148027533Y-79086095D01*
X148047305Y-79017114D01*
X148066608Y-78949568D01*
X148085114Y-78884596D01*
X148102496Y-78823334D01*
X148118427Y-78766922D01*
X148132579Y-78716497D01*
X148144624Y-78673197D01*
X148154236Y-78638159D01*
X148161086Y-78612523D01*
X148161980Y-78609073D01*
X148170188Y-78579171D01*
X148176904Y-78558711D01*
X148181739Y-78548743D01*
X148184066Y-78549264D01*
X148187294Y-78561514D01*
X148192163Y-78581596D01*
X148197078Y-78602802D01*
X148200402Y-78615746D01*
X148206855Y-78639276D01*
X148216111Y-78672279D01*
X148227846Y-78713639D01*
X148241737Y-78762244D01*
X148257457Y-78816979D01*
X148274683Y-78876730D01*
X148293090Y-78940383D01*
X148312353Y-79006825D01*
X148332148Y-79074942D01*
X148352150Y-79143618D01*
X148372035Y-79211742D01*
X148391477Y-79278198D01*
X148410153Y-79341872D01*
X148427737Y-79401651D01*
X148443906Y-79456421D01*
X148458334Y-79505068D01*
X148470697Y-79546478D01*
X148480671Y-79579536D01*
X148487930Y-79603130D01*
X148492150Y-79616145D01*
X148492981Y-79618271D01*
X148500789Y-79628676D01*
X148513784Y-79642695D01*
X148518314Y-79647125D01*
X148538320Y-79666175D01*
X148764923Y-79667911D01*
X148991525Y-79669648D01*
X149253737Y-78823361D01*
X149284823Y-78722991D01*
X149314856Y-78625943D01*
X149343623Y-78532911D01*
X149370910Y-78444587D01*
X149396504Y-78361663D01*
X149420193Y-78284832D01*
X149441762Y-78214787D01*
X149461000Y-78152220D01*
X149477692Y-78097824D01*
X149491625Y-78052291D01*
X149502587Y-78016313D01*
X149510365Y-77990584D01*
X149514744Y-77975795D01*
X149515674Y-77972312D01*
X149509496Y-77971219D01*
X149492036Y-77970215D01*
X149464714Y-77969329D01*
X149428947Y-77968589D01*
X149386154Y-77968027D01*
X149337754Y-77967670D01*
X149286597Y-77967550D01*
X149224682Y-77967623D01*
X149174169Y-77967878D01*
X149133759Y-77968365D01*
X149102154Y-77969134D01*
X149078056Y-77970236D01*
X149060167Y-77971723D01*
X149047188Y-77973644D01*
X149037821Y-77976051D01*
X149034184Y-77977411D01*
X149005961Y-77993658D01*
X148982971Y-78015330D01*
X148969949Y-78036558D01*
X148967224Y-78046137D01*
X148962057Y-78066942D01*
X148954712Y-78097790D01*
X148945453Y-78137499D01*
X148934545Y-78184886D01*
X148922251Y-78238769D01*
X148908837Y-78297966D01*
X148894566Y-78361293D01*
X148879702Y-78427570D01*
X148864511Y-78495612D01*
X148849256Y-78564238D01*
X148834202Y-78632265D01*
X148819613Y-78698511D01*
X148805753Y-78761793D01*
X148792887Y-78820929D01*
X148781278Y-78874736D01*
X148771192Y-78922033D01*
X148762893Y-78961635D01*
X148759695Y-78977200D01*
X148751133Y-79018183D01*
X148743217Y-79054089D01*
X148736326Y-79083353D01*
X148730838Y-79104414D01*
X148727135Y-79115708D01*
X148725780Y-79116900D01*
X148718811Y-79096397D01*
X148708613Y-79063875D01*
X148695258Y-79019580D01*
X148678817Y-78963757D01*
X148659360Y-78896650D01*
X148636959Y-78818505D01*
X148611683Y-78729568D01*
X148583605Y-78630083D01*
X148552795Y-78520295D01*
X148540550Y-78476514D01*
X148520161Y-78403830D01*
X148500553Y-78334470D01*
X148482021Y-78269447D01*
X148464861Y-78209771D01*
X148449368Y-78156453D01*
X148435837Y-78110504D01*
X148424564Y-78072936D01*
X148415844Y-78044760D01*
X148409972Y-78026986D01*
X148407493Y-78020889D01*
X148396114Y-78008148D01*
X148379038Y-77993762D01*
X148371140Y-77988175D01*
X148344789Y-77970725D01*
X148179345Y-77968828D01*
X148123460Y-77968334D01*
X148078664Y-77968451D01*
X148043348Y-77969448D01*
X148015905Y-77971592D01*
X147994726Y-77975152D01*
X147978206Y-77980396D01*
X147964735Y-77987593D01*
X147952706Y-77997010D01*
X147940791Y-78008628D01*
X147936372Y-78013521D01*
X147932172Y-78019286D01*
X147927904Y-78026865D01*
X147923283Y-78037199D01*
X147918022Y-78051227D01*
X147911836Y-78069892D01*
X147904439Y-78094133D01*
X147895544Y-78124891D01*
X147884867Y-78163108D01*
X147872120Y-78209723D01*
X147857019Y-78265679D01*
X147839277Y-78331914D01*
X147818608Y-78409372D01*
X147815851Y-78419712D01*
X147783809Y-78539773D01*
X147754894Y-78647781D01*
X147729041Y-78743976D01*
X147706185Y-78828599D01*
X147686259Y-78901888D01*
X147669197Y-78964083D01*
X147654933Y-79015423D01*
X147643403Y-79056149D01*
X147634539Y-79086499D01*
X147628276Y-79106714D01*
X147624548Y-79117032D01*
X147623755Y-79118440D01*
X147620754Y-79114824D01*
X147616372Y-79101191D01*
X147611342Y-79080045D01*
X147608853Y-79067640D01*
X147604680Y-79047226D01*
X147598032Y-79016752D01*
X147589179Y-78977345D01*
X147578391Y-78930132D01*
X147565937Y-78876240D01*
X147552086Y-78816794D01*
X147537106Y-78752923D01*
X147521268Y-78685752D01*
X147504839Y-78616409D01*
X147488091Y-78546019D01*
X147471291Y-78475711D01*
X147454708Y-78406609D01*
X147438613Y-78339842D01*
X147423274Y-78276535D01*
X147408960Y-78217816D01*
X147395940Y-78164811D01*
X147384484Y-78118647D01*
X147374861Y-78080451D01*
X147367340Y-78051348D01*
X147362190Y-78032467D01*
X147359797Y-78025128D01*
X147341381Y-78002184D01*
X147312023Y-77982165D01*
X147297364Y-77975177D01*
X147287434Y-77972886D01*
X147268889Y-77971036D01*
X147240983Y-77969606D01*
X147202973Y-77968570D01*
X147154114Y-77967905D01*
X147093663Y-77967586D01*
X147060147Y-77967550D01*
X147001103Y-77967602D01*
X147001103Y-77967602D01*
G37*
X147001103Y-77967602D02*
X146953580Y-77967796D01*
X146916399Y-77968183D01*
X146888383Y-77968815D01*
X146868352Y-77969744D01*
X146855129Y-77971023D01*
X146847535Y-77972703D01*
X146844391Y-77974838D01*
X146844359Y-77977105D01*
X146846520Y-77983870D01*
X146852182Y-78001917D01*
X146861082Y-78030400D01*
X146872957Y-78068470D01*
X146887544Y-78115280D01*
X146904578Y-78169984D01*
X146923797Y-78231734D01*
X146944939Y-78299684D01*
X146967738Y-78372985D01*
X146991933Y-78450790D01*
X147017260Y-78532253D01*
X147043456Y-78616527D01*
X147070258Y-78702763D01*
X147097402Y-78790116D01*
X147124625Y-78877737D01*
X147151664Y-78964780D01*
X147178255Y-79050397D01*
X147204137Y-79133742D01*
X147229044Y-79213966D01*
X147252715Y-79290223D01*
X147274885Y-79361666D01*
X147295292Y-79427447D01*
X147313673Y-79486720D01*
X147329763Y-79538637D01*
X147343301Y-79582350D01*
X147354022Y-79617014D01*
X147361663Y-79641780D01*
X147365962Y-79655801D01*
X147366695Y-79658237D01*
X147368288Y-79661162D01*
X147371994Y-79663527D01*
X147379046Y-79665389D01*
X147390675Y-79666808D01*
X147408113Y-79667844D01*
X147432592Y-79668556D01*
X147465344Y-79669002D01*
X147507601Y-79669244D01*
X147560595Y-79669338D01*
X147597641Y-79669350D01*
X147825326Y-79669350D01*
X147843719Y-79653873D01*
X147858710Y-79637341D01*
X147871394Y-79617061D01*
X147872732Y-79614185D01*
X147876052Y-79604516D01*
X147882505Y-79583766D01*
X147891763Y-79553072D01*
X147903500Y-79513572D01*
X147917387Y-79466404D01*
X147933097Y-79412706D01*
X147950303Y-79353617D01*
X147968677Y-79290273D01*
X147987891Y-79223813D01*
X148007619Y-79155374D01*
X148027533Y-79086095D01*
X148047305Y-79017114D01*
X148066608Y-78949568D01*
X148085114Y-78884596D01*
X148102496Y-78823334D01*
X148118427Y-78766922D01*
X148132579Y-78716497D01*
X148144624Y-78673197D01*
X148154236Y-78638159D01*
X148161086Y-78612523D01*
X148161980Y-78609073D01*
X148170188Y-78579171D01*
X148176904Y-78558711D01*
X148181739Y-78548743D01*
X148184066Y-78549264D01*
X148187294Y-78561514D01*
X148192163Y-78581596D01*
X148197078Y-78602802D01*
X148200402Y-78615746D01*
X148206855Y-78639276D01*
X148216111Y-78672279D01*
X148227846Y-78713639D01*
X148241737Y-78762244D01*
X148257457Y-78816979D01*
X148274683Y-78876730D01*
X148293090Y-78940383D01*
X148312353Y-79006825D01*
X148332148Y-79074942D01*
X148352150Y-79143618D01*
X148372035Y-79211742D01*
X148391477Y-79278198D01*
X148410153Y-79341872D01*
X148427737Y-79401651D01*
X148443906Y-79456421D01*
X148458334Y-79505068D01*
X148470697Y-79546478D01*
X148480671Y-79579536D01*
X148487930Y-79603130D01*
X148492150Y-79616145D01*
X148492981Y-79618271D01*
X148500789Y-79628676D01*
X148513784Y-79642695D01*
X148518314Y-79647125D01*
X148538320Y-79666175D01*
X148764923Y-79667911D01*
X148991525Y-79669648D01*
X149253737Y-78823361D01*
X149284823Y-78722991D01*
X149314856Y-78625943D01*
X149343623Y-78532911D01*
X149370910Y-78444587D01*
X149396504Y-78361663D01*
X149420193Y-78284832D01*
X149441762Y-78214787D01*
X149461000Y-78152220D01*
X149477692Y-78097824D01*
X149491625Y-78052291D01*
X149502587Y-78016313D01*
X149510365Y-77990584D01*
X149514744Y-77975795D01*
X149515674Y-77972312D01*
X149509496Y-77971219D01*
X149492036Y-77970215D01*
X149464714Y-77969329D01*
X149428947Y-77968589D01*
X149386154Y-77968027D01*
X149337754Y-77967670D01*
X149286597Y-77967550D01*
X149224682Y-77967623D01*
X149174169Y-77967878D01*
X149133759Y-77968365D01*
X149102154Y-77969134D01*
X149078056Y-77970236D01*
X149060167Y-77971723D01*
X149047188Y-77973644D01*
X149037821Y-77976051D01*
X149034184Y-77977411D01*
X149005961Y-77993658D01*
X148982971Y-78015330D01*
X148969949Y-78036558D01*
X148967224Y-78046137D01*
X148962057Y-78066942D01*
X148954712Y-78097790D01*
X148945453Y-78137499D01*
X148934545Y-78184886D01*
X148922251Y-78238769D01*
X148908837Y-78297966D01*
X148894566Y-78361293D01*
X148879702Y-78427570D01*
X148864511Y-78495612D01*
X148849256Y-78564238D01*
X148834202Y-78632265D01*
X148819613Y-78698511D01*
X148805753Y-78761793D01*
X148792887Y-78820929D01*
X148781278Y-78874736D01*
X148771192Y-78922033D01*
X148762893Y-78961635D01*
X148759695Y-78977200D01*
X148751133Y-79018183D01*
X148743217Y-79054089D01*
X148736326Y-79083353D01*
X148730838Y-79104414D01*
X148727135Y-79115708D01*
X148725780Y-79116900D01*
X148718811Y-79096397D01*
X148708613Y-79063875D01*
X148695258Y-79019580D01*
X148678817Y-78963757D01*
X148659360Y-78896650D01*
X148636959Y-78818505D01*
X148611683Y-78729568D01*
X148583605Y-78630083D01*
X148552795Y-78520295D01*
X148540550Y-78476514D01*
X148520161Y-78403830D01*
X148500553Y-78334470D01*
X148482021Y-78269447D01*
X148464861Y-78209771D01*
X148449368Y-78156453D01*
X148435837Y-78110504D01*
X148424564Y-78072936D01*
X148415844Y-78044760D01*
X148409972Y-78026986D01*
X148407493Y-78020889D01*
X148396114Y-78008148D01*
X148379038Y-77993762D01*
X148371140Y-77988175D01*
X148344789Y-77970725D01*
X148179345Y-77968828D01*
X148123460Y-77968334D01*
X148078664Y-77968451D01*
X148043348Y-77969448D01*
X148015905Y-77971592D01*
X147994726Y-77975152D01*
X147978206Y-77980396D01*
X147964735Y-77987593D01*
X147952706Y-77997010D01*
X147940791Y-78008628D01*
X147936372Y-78013521D01*
X147932172Y-78019286D01*
X147927904Y-78026865D01*
X147923283Y-78037199D01*
X147918022Y-78051227D01*
X147911836Y-78069892D01*
X147904439Y-78094133D01*
X147895544Y-78124891D01*
X147884867Y-78163108D01*
X147872120Y-78209723D01*
X147857019Y-78265679D01*
X147839277Y-78331914D01*
X147818608Y-78409372D01*
X147815851Y-78419712D01*
X147783809Y-78539773D01*
X147754894Y-78647781D01*
X147729041Y-78743976D01*
X147706185Y-78828599D01*
X147686259Y-78901888D01*
X147669197Y-78964083D01*
X147654933Y-79015423D01*
X147643403Y-79056149D01*
X147634539Y-79086499D01*
X147628276Y-79106714D01*
X147624548Y-79117032D01*
X147623755Y-79118440D01*
X147620754Y-79114824D01*
X147616372Y-79101191D01*
X147611342Y-79080045D01*
X147608853Y-79067640D01*
X147604680Y-79047226D01*
X147598032Y-79016752D01*
X147589179Y-78977345D01*
X147578391Y-78930132D01*
X147565937Y-78876240D01*
X147552086Y-78816794D01*
X147537106Y-78752923D01*
X147521268Y-78685752D01*
X147504839Y-78616409D01*
X147488091Y-78546019D01*
X147471291Y-78475711D01*
X147454708Y-78406609D01*
X147438613Y-78339842D01*
X147423274Y-78276535D01*
X147408960Y-78217816D01*
X147395940Y-78164811D01*
X147384484Y-78118647D01*
X147374861Y-78080451D01*
X147367340Y-78051348D01*
X147362190Y-78032467D01*
X147359797Y-78025128D01*
X147341381Y-78002184D01*
X147312023Y-77982165D01*
X147297364Y-77975177D01*
X147287434Y-77972886D01*
X147268889Y-77971036D01*
X147240983Y-77969606D01*
X147202973Y-77968570D01*
X147154114Y-77967905D01*
X147093663Y-77967586D01*
X147060147Y-77967550D01*
X147001103Y-77967602D01*
G36*
X145860714Y-77937558D02*
X145809690Y-77940414D01*
X145763936Y-77944677D01*
X145726304Y-77950248D01*
X145709157Y-77954085D01*
X145633391Y-77978207D01*
X145566709Y-78008112D01*
X145506180Y-78045465D01*
X145448875Y-78091930D01*
X145422838Y-78116775D01*
X145374373Y-78169333D01*
X145335798Y-78221284D01*
X145304949Y-78276024D01*
X145279663Y-78336948D01*
X145276198Y-78346883D01*
X145269524Y-78366511D01*
X145263623Y-78384511D01*
X145258448Y-78401759D01*
X145253949Y-78419128D01*
X145250081Y-78437491D01*
X145246795Y-78457724D01*
X145244044Y-78480700D01*
X145241780Y-78507293D01*
X145239956Y-78538378D01*
X145238525Y-78574828D01*
X145237438Y-78617517D01*
X145236649Y-78667320D01*
X145236110Y-78725110D01*
X145235773Y-78791761D01*
X145235591Y-78868148D01*
X145235516Y-78955145D01*
X145235500Y-79053626D01*
X145235500Y-79669350D01*
X145383138Y-79669314D01*
X145427244Y-79669024D01*
X145468074Y-79668228D01*
X145503516Y-79667008D01*
X145531455Y-79665446D01*
X145549779Y-79663622D01*
X145554391Y-79662720D01*
X145580003Y-79652204D01*
X145602172Y-79635067D01*
X145622038Y-79609834D01*
X145640741Y-79575029D01*
X145659422Y-79529179D01*
X145660987Y-79524887D01*
X145668714Y-79504818D01*
X145675093Y-79490546D01*
X145678702Y-79485200D01*
X145684827Y-79488843D01*
X145698633Y-79498657D01*
X145717812Y-79512969D01*
X145731998Y-79523838D01*
X145801160Y-79574243D01*
X145866145Y-79614568D01*
X145929287Y-79645636D01*
X145992919Y-79668272D01*
X146059376Y-79683299D01*
X146130990Y-79691541D01*
X146210096Y-79693822D01*
X146213400Y-79693801D01*
X146249775Y-79693381D01*
X146282684Y-79692724D01*
X146309589Y-79691901D01*
X146327954Y-79690985D01*
X146334050Y-79690383D01*
X146370436Y-79682776D01*
X146411001Y-79671815D01*
X146450537Y-79659073D01*
X146483832Y-79646120D01*
X146489744Y-79643426D01*
X146551857Y-79608006D01*
X146604470Y-79564689D01*
X146648096Y-79512873D01*
X146683249Y-79451957D01*
X146708735Y-79386775D01*
X146717209Y-79351291D01*
X146723238Y-79307874D01*
X146726669Y-79260459D01*
X146727345Y-79212983D01*
X146726950Y-79205259D01*
X146237560Y-79205259D01*
X146232730Y-79247183D01*
X146220315Y-79280882D01*
X146204772Y-79305406D01*
X146185260Y-79322951D01*
X146157953Y-79336673D01*
X146148328Y-79340282D01*
X146120095Y-79346831D01*
X146083311Y-79350358D01*
X146041735Y-79350965D01*
X145999126Y-79348759D01*
X145959242Y-79343842D01*
X145925841Y-79336320D01*
X145918556Y-79333905D01*
X145855337Y-79304292D01*
X145794883Y-79262304D01*
X145774678Y-79244954D01*
X145737150Y-79211084D01*
X145737150Y-78983550D01*
X145799230Y-78983550D01*
X145872279Y-78986320D01*
X145942766Y-78994319D01*
X146009003Y-79007083D01*
X146069299Y-79024145D01*
X146121966Y-79045038D01*
X146165315Y-79069298D01*
X146193719Y-79092362D01*
X146217627Y-79124812D01*
X146232383Y-79163456D01*
X146237560Y-79205259D01*
X146726950Y-79205259D01*
X146725113Y-79169381D01*
X146719817Y-79133590D01*
X146718856Y-79129563D01*
X146696110Y-79061981D01*
X146663315Y-79000038D01*
X146620197Y-78943516D01*
X146566485Y-78892200D01*
X146501905Y-78845874D01*
X146426187Y-78804321D01*
X146339056Y-78767324D01*
X146240240Y-78734667D01*
X146211021Y-78726430D01*
X146129509Y-78707921D01*
X146037748Y-78693849D01*
X145937470Y-78684441D01*
X145858604Y-78680608D01*
X145735583Y-78676852D01*
X145738834Y-78590488D01*
X145742917Y-78532575D01*
X145750857Y-78485085D01*
X145763387Y-78446128D01*
X145781243Y-78413816D01*
X145805160Y-78386262D01*
X145824796Y-78369632D01*
X145852878Y-78351913D01*
X145884507Y-78339784D01*
X145922323Y-78332583D01*
X145968964Y-78329647D01*
X145984619Y-78329500D01*
X146020592Y-78330235D01*
X146052162Y-78332934D01*
X146081990Y-78338335D01*
X146112734Y-78347178D01*
X146147054Y-78360201D01*
X146187610Y-78378143D01*
X146226909Y-78396814D01*
X146275479Y-78419404D01*
X146315672Y-78435739D01*
X146349818Y-78446393D01*
X146380247Y-78451940D01*
X146409289Y-78452953D01*
X146439274Y-78450008D01*
X146441520Y-78449660D01*
X146466560Y-78444254D01*
X146488366Y-78435687D01*
X146508400Y-78422556D01*
X146528125Y-78403462D01*
X146549001Y-78377005D01*
X146572491Y-78341784D01*
X146598129Y-78299659D01*
X146615965Y-78269329D01*
X146631275Y-78242866D01*
X146642979Y-78222170D01*
X146650000Y-78209137D01*
X146651550Y-78205587D01*
X146646477Y-78198066D01*
X146632505Y-78185172D01*
X146611509Y-78168257D01*
X146585363Y-78148675D01*
X146555941Y-78127779D01*
X146525116Y-78106922D01*
X146494762Y-78087459D01*
X146466754Y-78070741D01*
X146458370Y-78066072D01*
X146370410Y-78024007D01*
X146274637Y-77988880D01*
X146174505Y-77961767D01*
X146073466Y-77943744D01*
X146060463Y-77942127D01*
X146016883Y-77938391D01*
X145967163Y-77936449D01*
X145914156Y-77936203D01*
X145860714Y-77937558D01*
X145860714Y-77937558D01*
G37*
X145860714Y-77937558D02*
X145809690Y-77940414D01*
X145763936Y-77944677D01*
X145726304Y-77950248D01*
X145709157Y-77954085D01*
X145633391Y-77978207D01*
X145566709Y-78008112D01*
X145506180Y-78045465D01*
X145448875Y-78091930D01*
X145422838Y-78116775D01*
X145374373Y-78169333D01*
X145335798Y-78221284D01*
X145304949Y-78276024D01*
X145279663Y-78336948D01*
X145276198Y-78346883D01*
X145269524Y-78366511D01*
X145263623Y-78384511D01*
X145258448Y-78401759D01*
X145253949Y-78419128D01*
X145250081Y-78437491D01*
X145246795Y-78457724D01*
X145244044Y-78480700D01*
X145241780Y-78507293D01*
X145239956Y-78538378D01*
X145238525Y-78574828D01*
X145237438Y-78617517D01*
X145236649Y-78667320D01*
X145236110Y-78725110D01*
X145235773Y-78791761D01*
X145235591Y-78868148D01*
X145235516Y-78955145D01*
X145235500Y-79053626D01*
X145235500Y-79669350D01*
X145383138Y-79669314D01*
X145427244Y-79669024D01*
X145468074Y-79668228D01*
X145503516Y-79667008D01*
X145531455Y-79665446D01*
X145549779Y-79663622D01*
X145554391Y-79662720D01*
X145580003Y-79652204D01*
X145602172Y-79635067D01*
X145622038Y-79609834D01*
X145640741Y-79575029D01*
X145659422Y-79529179D01*
X145660987Y-79524887D01*
X145668714Y-79504818D01*
X145675093Y-79490546D01*
X145678702Y-79485200D01*
X145684827Y-79488843D01*
X145698633Y-79498657D01*
X145717812Y-79512969D01*
X145731998Y-79523838D01*
X145801160Y-79574243D01*
X145866145Y-79614568D01*
X145929287Y-79645636D01*
X145992919Y-79668272D01*
X146059376Y-79683299D01*
X146130990Y-79691541D01*
X146210096Y-79693822D01*
X146213400Y-79693801D01*
X146249775Y-79693381D01*
X146282684Y-79692724D01*
X146309589Y-79691901D01*
X146327954Y-79690985D01*
X146334050Y-79690383D01*
X146370436Y-79682776D01*
X146411001Y-79671815D01*
X146450537Y-79659073D01*
X146483832Y-79646120D01*
X146489744Y-79643426D01*
X146551857Y-79608006D01*
X146604470Y-79564689D01*
X146648096Y-79512873D01*
X146683249Y-79451957D01*
X146708735Y-79386775D01*
X146717209Y-79351291D01*
X146723238Y-79307874D01*
X146726669Y-79260459D01*
X146727345Y-79212983D01*
X146726950Y-79205259D01*
X146237560Y-79205259D01*
X146232730Y-79247183D01*
X146220315Y-79280882D01*
X146204772Y-79305406D01*
X146185260Y-79322951D01*
X146157953Y-79336673D01*
X146148328Y-79340282D01*
X146120095Y-79346831D01*
X146083311Y-79350358D01*
X146041735Y-79350965D01*
X145999126Y-79348759D01*
X145959242Y-79343842D01*
X145925841Y-79336320D01*
X145918556Y-79333905D01*
X145855337Y-79304292D01*
X145794883Y-79262304D01*
X145774678Y-79244954D01*
X145737150Y-79211084D01*
X145737150Y-78983550D01*
X145799230Y-78983550D01*
X145872279Y-78986320D01*
X145942766Y-78994319D01*
X146009003Y-79007083D01*
X146069299Y-79024145D01*
X146121966Y-79045038D01*
X146165315Y-79069298D01*
X146193719Y-79092362D01*
X146217627Y-79124812D01*
X146232383Y-79163456D01*
X146237560Y-79205259D01*
X146726950Y-79205259D01*
X146725113Y-79169381D01*
X146719817Y-79133590D01*
X146718856Y-79129563D01*
X146696110Y-79061981D01*
X146663315Y-79000038D01*
X146620197Y-78943516D01*
X146566485Y-78892200D01*
X146501905Y-78845874D01*
X146426187Y-78804321D01*
X146339056Y-78767324D01*
X146240240Y-78734667D01*
X146211021Y-78726430D01*
X146129509Y-78707921D01*
X146037748Y-78693849D01*
X145937470Y-78684441D01*
X145858604Y-78680608D01*
X145735583Y-78676852D01*
X145738834Y-78590488D01*
X145742917Y-78532575D01*
X145750857Y-78485085D01*
X145763387Y-78446128D01*
X145781243Y-78413816D01*
X145805160Y-78386262D01*
X145824796Y-78369632D01*
X145852878Y-78351913D01*
X145884507Y-78339784D01*
X145922323Y-78332583D01*
X145968964Y-78329647D01*
X145984619Y-78329500D01*
X146020592Y-78330235D01*
X146052162Y-78332934D01*
X146081990Y-78338335D01*
X146112734Y-78347178D01*
X146147054Y-78360201D01*
X146187610Y-78378143D01*
X146226909Y-78396814D01*
X146275479Y-78419404D01*
X146315672Y-78435739D01*
X146349818Y-78446393D01*
X146380247Y-78451940D01*
X146409289Y-78452953D01*
X146439274Y-78450008D01*
X146441520Y-78449660D01*
X146466560Y-78444254D01*
X146488366Y-78435687D01*
X146508400Y-78422556D01*
X146528125Y-78403462D01*
X146549001Y-78377005D01*
X146572491Y-78341784D01*
X146598129Y-78299659D01*
X146615965Y-78269329D01*
X146631275Y-78242866D01*
X146642979Y-78222170D01*
X146650000Y-78209137D01*
X146651550Y-78205587D01*
X146646477Y-78198066D01*
X146632505Y-78185172D01*
X146611509Y-78168257D01*
X146585363Y-78148675D01*
X146555941Y-78127779D01*
X146525116Y-78106922D01*
X146494762Y-78087459D01*
X146466754Y-78070741D01*
X146458370Y-78066072D01*
X146370410Y-78024007D01*
X146274637Y-77988880D01*
X146174505Y-77961767D01*
X146073466Y-77943744D01*
X146060463Y-77942127D01*
X146016883Y-77938391D01*
X145967163Y-77936449D01*
X145914156Y-77936203D01*
X145860714Y-77937558D01*
G36*
X150299808Y-77944308D02*
X150256126Y-77946870D01*
X150222169Y-77950758D01*
X150124628Y-77972074D01*
X150034196Y-78003776D01*
X149951277Y-78045465D01*
X149876271Y-78096741D01*
X149809582Y-78157205D01*
X149751613Y-78226459D01*
X149702765Y-78304104D01*
X149663441Y-78389740D01*
X149634043Y-78482969D01*
X149620464Y-78547355D01*
X149613702Y-78595390D01*
X149608942Y-78647625D01*
X149606332Y-78700329D01*
X149606023Y-78749776D01*
X149608163Y-78792236D01*
X149609996Y-78808285D01*
X149618865Y-78850549D01*
X149631925Y-78881278D01*
X149649443Y-78901015D01*
X149658418Y-78906259D01*
X149665254Y-78907712D01*
X149679354Y-78908987D01*
X149701280Y-78910089D01*
X149731594Y-78911029D01*
X149770861Y-78911813D01*
X149819642Y-78912449D01*
X149878500Y-78912946D01*
X149947998Y-78913311D01*
X150028699Y-78913552D01*
X150121166Y-78913677D01*
X150188874Y-78913700D01*
X150703001Y-78913700D01*
X150698881Y-78940687D01*
X150681729Y-79021758D01*
X150656577Y-79093093D01*
X150623539Y-79154592D01*
X150582732Y-79206152D01*
X150534271Y-79247672D01*
X150478271Y-79279050D01*
X150414849Y-79300183D01*
X150344120Y-79310970D01*
X150277337Y-79311886D01*
X150238382Y-79309196D01*
X150202773Y-79304174D01*
X150167950Y-79296033D01*
X150131353Y-79283988D01*
X150090420Y-79267249D01*
X150042590Y-79245032D01*
X150013875Y-79230919D01*
X149961305Y-79206258D01*
X149917242Y-79189218D01*
X149880212Y-79179563D01*
X149848746Y-79177057D01*
X149821370Y-79181464D01*
X149796614Y-79192548D01*
X149792101Y-79195379D01*
X149783925Y-79202919D01*
X149769786Y-79218183D01*
X149751158Y-79239383D01*
X149729515Y-79264732D01*
X149706332Y-79292441D01*
X149683081Y-79320722D01*
X149661238Y-79347787D01*
X149642275Y-79371849D01*
X149627668Y-79391118D01*
X149618889Y-79403808D01*
X149617000Y-79407788D01*
X149621577Y-79415361D01*
X149633952Y-79429109D01*
X149652099Y-79447166D01*
X149673988Y-79467664D01*
X149697590Y-79488736D01*
X149720876Y-79508515D01*
X149741818Y-79525132D01*
X149754016Y-79533897D01*
X149835064Y-79582852D01*
X149918964Y-79622381D01*
X150007105Y-79652856D01*
X150100876Y-79674650D01*
X150201666Y-79688132D01*
X150310864Y-79693674D01*
X150352338Y-79693798D01*
X150390245Y-79693349D01*
X150424953Y-79692700D01*
X150453959Y-79691916D01*
X150474758Y-79691063D01*
X150483775Y-79690377D01*
X150588037Y-79671023D01*
X150685588Y-79641126D01*
X150776075Y-79601139D01*
X150859148Y-79551513D01*
X150934453Y-79492699D01*
X151001641Y-79425149D01*
X151060359Y-79349313D01*
X151110254Y-79265642D01*
X151150977Y-79174589D01*
X151182174Y-79076604D01*
X151203495Y-78972139D01*
X151214587Y-78861645D01*
X151215340Y-78751775D01*
X151208932Y-78662088D01*
X151201562Y-78615250D01*
X150697510Y-78615250D01*
X150066210Y-78615250D01*
X150070466Y-78575562D01*
X150082615Y-78508012D01*
X150103563Y-78449455D01*
X150133233Y-78399995D01*
X150171548Y-78359738D01*
X150218431Y-78328789D01*
X150265278Y-78309780D01*
X150295996Y-78303155D01*
X150334518Y-78299092D01*
X150376183Y-78297721D01*
X150416329Y-78299173D01*
X150450296Y-78303579D01*
X150454491Y-78304484D01*
X150508454Y-78323272D01*
X150557183Y-78353147D01*
X150600070Y-78393369D01*
X150636503Y-78443198D01*
X150665874Y-78501891D01*
X150687570Y-78568708D01*
X150693386Y-78594612D01*
X150697510Y-78615250D01*
X151201562Y-78615250D01*
X151196115Y-78580644D01*
X151176104Y-78504301D01*
X151148116Y-78429916D01*
X151120758Y-78372231D01*
X151069837Y-78286652D01*
X151009429Y-78209260D01*
X150940106Y-78140486D01*
X150862439Y-78080765D01*
X150777001Y-78030528D01*
X150684361Y-77990209D01*
X150585093Y-77960239D01*
X150572675Y-77957339D01*
X150541105Y-77952071D01*
X150499921Y-77947966D01*
X150452161Y-77945080D01*
X150400863Y-77943470D01*
X150349066Y-77943194D01*
X150299808Y-77944308D01*
X150299808Y-77944308D01*
G37*
X150299808Y-77944308D02*
X150256126Y-77946870D01*
X150222169Y-77950758D01*
X150124628Y-77972074D01*
X150034196Y-78003776D01*
X149951277Y-78045465D01*
X149876271Y-78096741D01*
X149809582Y-78157205D01*
X149751613Y-78226459D01*
X149702765Y-78304104D01*
X149663441Y-78389740D01*
X149634043Y-78482969D01*
X149620464Y-78547355D01*
X149613702Y-78595390D01*
X149608942Y-78647625D01*
X149606332Y-78700329D01*
X149606023Y-78749776D01*
X149608163Y-78792236D01*
X149609996Y-78808285D01*
X149618865Y-78850549D01*
X149631925Y-78881278D01*
X149649443Y-78901015D01*
X149658418Y-78906259D01*
X149665254Y-78907712D01*
X149679354Y-78908987D01*
X149701280Y-78910089D01*
X149731594Y-78911029D01*
X149770861Y-78911813D01*
X149819642Y-78912449D01*
X149878500Y-78912946D01*
X149947998Y-78913311D01*
X150028699Y-78913552D01*
X150121166Y-78913677D01*
X150188874Y-78913700D01*
X150703001Y-78913700D01*
X150698881Y-78940687D01*
X150681729Y-79021758D01*
X150656577Y-79093093D01*
X150623539Y-79154592D01*
X150582732Y-79206152D01*
X150534271Y-79247672D01*
X150478271Y-79279050D01*
X150414849Y-79300183D01*
X150344120Y-79310970D01*
X150277337Y-79311886D01*
X150238382Y-79309196D01*
X150202773Y-79304174D01*
X150167950Y-79296033D01*
X150131353Y-79283988D01*
X150090420Y-79267249D01*
X150042590Y-79245032D01*
X150013875Y-79230919D01*
X149961305Y-79206258D01*
X149917242Y-79189218D01*
X149880212Y-79179563D01*
X149848746Y-79177057D01*
X149821370Y-79181464D01*
X149796614Y-79192548D01*
X149792101Y-79195379D01*
X149783925Y-79202919D01*
X149769786Y-79218183D01*
X149751158Y-79239383D01*
X149729515Y-79264732D01*
X149706332Y-79292441D01*
X149683081Y-79320722D01*
X149661238Y-79347787D01*
X149642275Y-79371849D01*
X149627668Y-79391118D01*
X149618889Y-79403808D01*
X149617000Y-79407788D01*
X149621577Y-79415361D01*
X149633952Y-79429109D01*
X149652099Y-79447166D01*
X149673988Y-79467664D01*
X149697590Y-79488736D01*
X149720876Y-79508515D01*
X149741818Y-79525132D01*
X149754016Y-79533897D01*
X149835064Y-79582852D01*
X149918964Y-79622381D01*
X150007105Y-79652856D01*
X150100876Y-79674650D01*
X150201666Y-79688132D01*
X150310864Y-79693674D01*
X150352338Y-79693798D01*
X150390245Y-79693349D01*
X150424953Y-79692700D01*
X150453959Y-79691916D01*
X150474758Y-79691063D01*
X150483775Y-79690377D01*
X150588037Y-79671023D01*
X150685588Y-79641126D01*
X150776075Y-79601139D01*
X150859148Y-79551513D01*
X150934453Y-79492699D01*
X151001641Y-79425149D01*
X151060359Y-79349313D01*
X151110254Y-79265642D01*
X151150977Y-79174589D01*
X151182174Y-79076604D01*
X151203495Y-78972139D01*
X151214587Y-78861645D01*
X151215340Y-78751775D01*
X151208932Y-78662088D01*
X151201562Y-78615250D01*
X150697510Y-78615250D01*
X150066210Y-78615250D01*
X150070466Y-78575562D01*
X150082615Y-78508012D01*
X150103563Y-78449455D01*
X150133233Y-78399995D01*
X150171548Y-78359738D01*
X150218431Y-78328789D01*
X150265278Y-78309780D01*
X150295996Y-78303155D01*
X150334518Y-78299092D01*
X150376183Y-78297721D01*
X150416329Y-78299173D01*
X150450296Y-78303579D01*
X150454491Y-78304484D01*
X150508454Y-78323272D01*
X150557183Y-78353147D01*
X150600070Y-78393369D01*
X150636503Y-78443198D01*
X150665874Y-78501891D01*
X150687570Y-78568708D01*
X150693386Y-78594612D01*
X150697510Y-78615250D01*
X151201562Y-78615250D01*
X151196115Y-78580644D01*
X151176104Y-78504301D01*
X151148116Y-78429916D01*
X151120758Y-78372231D01*
X151069837Y-78286652D01*
X151009429Y-78209260D01*
X150940106Y-78140486D01*
X150862439Y-78080765D01*
X150777001Y-78030528D01*
X150684361Y-77990209D01*
X150585093Y-77960239D01*
X150572675Y-77957339D01*
X150541105Y-77952071D01*
X150499921Y-77947966D01*
X150452161Y-77945080D01*
X150400863Y-77943470D01*
X150349066Y-77943194D01*
X150299808Y-77944308D01*
G36*
X145433918Y-75326939D02*
X145354439Y-75327419D01*
X145281688Y-75328309D01*
X145217430Y-75329628D01*
X145163433Y-75331389D01*
X145152560Y-75331863D01*
X144902274Y-75346551D01*
X144662701Y-75367083D01*
X144433233Y-75393544D01*
X144213261Y-75426022D01*
X144002178Y-75464602D01*
X143799377Y-75509369D01*
X143671978Y-75541756D01*
X143483278Y-75596285D01*
X143305080Y-75655908D01*
X143137493Y-75720534D01*
X142980628Y-75790070D01*
X142834596Y-75864424D01*
X142699509Y-75943505D01*
X142575476Y-76027221D01*
X142462609Y-76115479D01*
X142361018Y-76208188D01*
X142270814Y-76305256D01*
X142192107Y-76406591D01*
X142125010Y-76512101D01*
X142069631Y-76621695D01*
X142026083Y-76735279D01*
X141994475Y-76852763D01*
X141978156Y-76947246D01*
X141975888Y-76971102D01*
X141973960Y-77004102D01*
X141972521Y-77042693D01*
X141971717Y-77083321D01*
X141971600Y-77104409D01*
X141971600Y-77211900D01*
X141654100Y-77211900D01*
X141654100Y-78140176D01*
X141620763Y-78110186D01*
X141565330Y-78066302D01*
X141501956Y-78026273D01*
X141434745Y-77992338D01*
X141367804Y-77966736D01*
X141346125Y-77960405D01*
X141304866Y-77952057D01*
X141255463Y-77946258D01*
X141201618Y-77943085D01*
X141147035Y-77942612D01*
X141095417Y-77944914D01*
X141050467Y-77950067D01*
X141030472Y-77954012D01*
X140951567Y-77979079D01*
X140878966Y-78015119D01*
X140812786Y-78062015D01*
X140753142Y-78119650D01*
X140700150Y-78187907D01*
X140653927Y-78266669D01*
X140614589Y-78355818D01*
X140604325Y-78384058D01*
X140582779Y-78452463D01*
X140566326Y-78519961D01*
X140554616Y-78589185D01*
X140547298Y-78662771D01*
X140544019Y-78743354D01*
X140544416Y-78833029D01*
X140546817Y-78902044D01*
X140551027Y-78961537D01*
X140557516Y-79014617D01*
X140566749Y-79064392D01*
X140579197Y-79113970D01*
X140594026Y-79162498D01*
X140630635Y-79257021D01*
X140676118Y-79344520D01*
X140729795Y-79424181D01*
X140790992Y-79495190D01*
X140859030Y-79556732D01*
X140933234Y-79607994D01*
X140989081Y-79637606D01*
X141033230Y-79656823D01*
X141074230Y-79671102D01*
X141115550Y-79681192D01*
X141160660Y-79687844D01*
X141213028Y-79691807D01*
X141245675Y-79693097D01*
X141303423Y-79693790D01*
X141351674Y-79691689D01*
X141393416Y-79686316D01*
X141431637Y-79677193D01*
X141469327Y-79663840D01*
X141493285Y-79653436D01*
X141529013Y-79635775D01*
X141560282Y-79617080D01*
X141590686Y-79594845D01*
X141623819Y-79566568D01*
X141642285Y-79549610D01*
X141690025Y-79505027D01*
X141698101Y-79547501D01*
X141708606Y-79590542D01*
X141721971Y-79622492D01*
X141738956Y-79644784D01*
X141756117Y-79656862D01*
X141763816Y-79660409D01*
X141772449Y-79663215D01*
X141783518Y-79665367D01*
X141798527Y-79666950D01*
X141818979Y-79668051D01*
X141846377Y-79668756D01*
X141882225Y-79669149D01*
X141928026Y-79669318D01*
X141974501Y-79669350D01*
X142168408Y-79669350D01*
X142170017Y-78750603D01*
X142170474Y-78489354D01*
X141654100Y-78489354D01*
X141654100Y-79204623D01*
X141623359Y-79232262D01*
X141576859Y-79265941D01*
X141522956Y-79291142D01*
X141464254Y-79307205D01*
X141403358Y-79313473D01*
X141342870Y-79309286D01*
X141328976Y-79306709D01*
X141275933Y-79289305D01*
X141228218Y-79260627D01*
X141186181Y-79221086D01*
X141150175Y-79171094D01*
X141120552Y-79111062D01*
X141097664Y-79041402D01*
X141095895Y-79034470D01*
X141083134Y-78969763D01*
X141075183Y-78899292D01*
X141071891Y-78825405D01*
X141073106Y-78750449D01*
X141078677Y-78676772D01*
X141088450Y-78606721D01*
X141102276Y-78542644D01*
X141120001Y-78486888D01*
X141133250Y-78456797D01*
X141162040Y-78410055D01*
X141195996Y-78374542D01*
X141236087Y-78349673D01*
X141283276Y-78334865D01*
X141338532Y-78329534D01*
X141343860Y-78329500D01*
X141408136Y-78333672D01*
X141465095Y-78346828D01*
X141517013Y-78369928D01*
X141566171Y-78403933D01*
X141604888Y-78439477D01*
X141654100Y-78489354D01*
X142170474Y-78489354D01*
X142171625Y-77831857D01*
X142205729Y-77891766D01*
X142250403Y-77965880D01*
X142302839Y-78045378D01*
X142361055Y-78127498D01*
X142423068Y-78209477D01*
X142486898Y-78288552D01*
X142509683Y-78315477D01*
X142560278Y-78374479D01*
X142547160Y-78423427D01*
X142544951Y-78431983D01*
X142543001Y-78440702D01*
X142541291Y-78450403D01*
X142539800Y-78461905D01*
X142538511Y-78476027D01*
X142537404Y-78493588D01*
X142536459Y-78515408D01*
X142535658Y-78542304D01*
X142534981Y-78575096D01*
X142534410Y-78614603D01*
X142533924Y-78661643D01*
X142533506Y-78717037D01*
X142533135Y-78781603D01*
X142532792Y-78856159D01*
X142532459Y-78941525D01*
X142532117Y-79038520D01*
X142532006Y-79070862D01*
X142529970Y-79669349D01*
X142677823Y-79669314D01*
X142721982Y-79669024D01*
X142762853Y-79668229D01*
X142798328Y-79667010D01*
X142826295Y-79665449D01*
X142844647Y-79663627D01*
X142849291Y-79662720D01*
X142874903Y-79652204D01*
X142897072Y-79635067D01*
X142916938Y-79609834D01*
X142935641Y-79575029D01*
X142954322Y-79529179D01*
X142955887Y-79524887D01*
X142963576Y-79504822D01*
X142969859Y-79490551D01*
X142973340Y-79485200D01*
X142979315Y-79488818D01*
X142993224Y-79498649D01*
X143012941Y-79513156D01*
X143034401Y-79529326D01*
X143102726Y-79578126D01*
X143167031Y-79617023D01*
X143229625Y-79647124D01*
X143292815Y-79669538D01*
X143358912Y-79685372D01*
X143360096Y-79685595D01*
X143398297Y-79690684D01*
X143444591Y-79693617D01*
X143495723Y-79694484D01*
X143548436Y-79693374D01*
X143599476Y-79690378D01*
X143645585Y-79685585D01*
X143683509Y-79679086D01*
X143694415Y-79676377D01*
X143763878Y-79652816D01*
X143823919Y-79622638D01*
X143876767Y-79584281D01*
X143924651Y-79536181D01*
X143960937Y-79489559D01*
X143964838Y-79485451D01*
X143970292Y-79484154D01*
X143979132Y-79486385D01*
X143993192Y-79492861D01*
X144014307Y-79504298D01*
X144044311Y-79521413D01*
X144048260Y-79523689D01*
X144309863Y-79668646D01*
X144582190Y-79808159D01*
X144864352Y-79941930D01*
X145155461Y-80069660D01*
X145454628Y-80191049D01*
X145760967Y-80305796D01*
X146073587Y-80413604D01*
X146391601Y-80514172D01*
X146714121Y-80607200D01*
X147040258Y-80692390D01*
X147369124Y-80769441D01*
X147699830Y-80838055D01*
X148031489Y-80897931D01*
X148207300Y-80926013D01*
X148263323Y-80934345D01*
X148324521Y-80943077D01*
X148389466Y-80952033D01*
X148456730Y-80961038D01*
X148524885Y-80969917D01*
X148592500Y-80978495D01*
X148658150Y-80986596D01*
X148720404Y-80994046D01*
X148777834Y-81000670D01*
X148829012Y-81006291D01*
X148872509Y-81010735D01*
X148906898Y-81013826D01*
X148930749Y-81015390D01*
X148937362Y-81015550D01*
X148940255Y-81015775D01*
X148942679Y-81017140D01*
X148944676Y-81020676D01*
X148946287Y-81027415D01*
X148947553Y-81038388D01*
X148948516Y-81054627D01*
X148949217Y-81077164D01*
X148949698Y-81107030D01*
X148950001Y-81145257D01*
X148950166Y-81192877D01*
X148950235Y-81250922D01*
X148950250Y-81320423D01*
X148950250Y-81656900D01*
X149064430Y-81656900D01*
X149066078Y-81349168D01*
X149067725Y-81041437D01*
X149690025Y-81375428D01*
X149772678Y-81419765D01*
X149852293Y-81462427D01*
X149928144Y-81503028D01*
X149999507Y-81541181D01*
X150065655Y-81576501D01*
X150125865Y-81608601D01*
X150179409Y-81637095D01*
X150225564Y-81661596D01*
X150263604Y-81681719D01*
X150292804Y-81697077D01*
X150312438Y-81707283D01*
X150321781Y-81711953D01*
X150322403Y-81712204D01*
X150325276Y-81711897D01*
X150327627Y-81708385D01*
X150329551Y-81700403D01*
X150331140Y-81686690D01*
X150332488Y-81665982D01*
X150333689Y-81637015D01*
X150334836Y-81598527D01*
X150336023Y-81549254D01*
X150336680Y-81519257D01*
X150337804Y-81461933D01*
X150338815Y-81400943D01*
X150339672Y-81339600D01*
X150340331Y-81281217D01*
X150340751Y-81229108D01*
X150340889Y-81188875D01*
X150340900Y-81054225D01*
X150361538Y-81051082D01*
X150376036Y-81049531D01*
X150399804Y-81047695D01*
X150429424Y-81045814D01*
X150458375Y-81044276D01*
X150488687Y-81042527D01*
X150528262Y-81039812D01*
X150573726Y-81036387D01*
X150621700Y-81032507D01*
X150668809Y-81028427D01*
X150674275Y-81027934D01*
X150902693Y-81003782D01*
X151122724Y-80973602D01*
X151334163Y-80937493D01*
X151536803Y-80895557D01*
X151730439Y-80847895D01*
X151914866Y-80794609D01*
X152089877Y-80735800D01*
X152255266Y-80671568D01*
X152410829Y-80602015D01*
X152556360Y-80527242D01*
X152691651Y-80447351D01*
X152816499Y-80362441D01*
X152930697Y-80272616D01*
X153034040Y-80177975D01*
X153126321Y-80078620D01*
X153207335Y-79974652D01*
X153276877Y-79866172D01*
X153334740Y-79753282D01*
X153353063Y-79710625D01*
X153381421Y-79632530D01*
X153405527Y-79549087D01*
X153423746Y-79466303D01*
X153429996Y-79428021D01*
X153434726Y-79383294D01*
X153437815Y-79329675D01*
X153439264Y-79270868D01*
X153439229Y-79259754D01*
X153304951Y-79259754D01*
X153300405Y-79339150D01*
X153283035Y-79456994D01*
X153255083Y-79569195D01*
X153216213Y-79676438D01*
X153166088Y-79779410D01*
X153104374Y-79878799D01*
X153030733Y-79975292D01*
X152944830Y-80069574D01*
X152941253Y-80073189D01*
X152841076Y-80165953D01*
X152729293Y-80254158D01*
X152606197Y-80337688D01*
X152472081Y-80416426D01*
X152327237Y-80490252D01*
X152171957Y-80559051D01*
X152006536Y-80622704D01*
X151831265Y-80681094D01*
X151646437Y-80734104D01*
X151452344Y-80781615D01*
X151249280Y-80823510D01*
X151037537Y-80859672D01*
X150951321Y-80872386D01*
X150898505Y-80879433D01*
X150837370Y-80886914D01*
X150770361Y-80894583D01*
X150699923Y-80902193D01*
X150628502Y-80909498D01*
X150558540Y-80916252D01*
X150492484Y-80922209D01*
X150432779Y-80927123D01*
X150381868Y-80930746D01*
X150358418Y-80932105D01*
X150341011Y-80933000D01*
X150337725Y-80254534D01*
X149067725Y-80925982D01*
X149064435Y-80278950D01*
X148950250Y-80278950D01*
X148950250Y-80913950D01*
X148926024Y-80913950D01*
X148909533Y-80913253D01*
X148882124Y-80911276D01*
X148845498Y-80908190D01*
X148801354Y-80904164D01*
X148751393Y-80899368D01*
X148697314Y-80893972D01*
X148640817Y-80888148D01*
X148583602Y-80882063D01*
X148527369Y-80875890D01*
X148473817Y-80869797D01*
X148424647Y-80863955D01*
X148416850Y-80863000D01*
X148064579Y-80814587D01*
X147712641Y-80756265D01*
X147361996Y-80688311D01*
X147013602Y-80611005D01*
X146668416Y-80524624D01*
X146327397Y-80429446D01*
X145991503Y-80325750D01*
X145661692Y-80213815D01*
X145338923Y-80093918D01*
X145024152Y-79966337D01*
X144718339Y-79831351D01*
X144489375Y-79722444D01*
X144387775Y-79672525D01*
X144624313Y-79670860D01*
X144860850Y-79669195D01*
X144860850Y-77211900D01*
X144346500Y-77211900D01*
X144346500Y-79650441D01*
X144296733Y-79625419D01*
X144271614Y-79612468D01*
X144238094Y-79594724D01*
X144198833Y-79573637D01*
X144156491Y-79550653D01*
X144113729Y-79527220D01*
X144073205Y-79504788D01*
X144037581Y-79484804D01*
X144019278Y-79474369D01*
X143980980Y-79452343D01*
X143999623Y-79397334D01*
X144007749Y-79371663D01*
X144013387Y-79348557D01*
X144017122Y-79324197D01*
X144019540Y-79294766D01*
X144021223Y-79256563D01*
X144022145Y-79215195D01*
X144021906Y-79202625D01*
X143533730Y-79202625D01*
X143529935Y-79231050D01*
X143521520Y-79264907D01*
X143506835Y-79295459D01*
X143489941Y-79316308D01*
X143476311Y-79325345D01*
X143456120Y-79335193D01*
X143443228Y-79340282D01*
X143414995Y-79346831D01*
X143378211Y-79350358D01*
X143336635Y-79350965D01*
X143294026Y-79348759D01*
X143254142Y-79343842D01*
X143220741Y-79336320D01*
X143213456Y-79333905D01*
X143150237Y-79304292D01*
X143089783Y-79262304D01*
X143069578Y-79244954D01*
X143032050Y-79211084D01*
X143032050Y-78983550D01*
X143090788Y-78983595D01*
X143140274Y-78984223D01*
X143179123Y-78986239D01*
X143209352Y-78989967D01*
X143232980Y-78995732D01*
X143252025Y-79003861D01*
X143264266Y-79011524D01*
X143277436Y-79020897D01*
X143299064Y-79036259D01*
X143327244Y-79056259D01*
X143360072Y-79079544D01*
X143395641Y-79104762D01*
X143412766Y-79116900D01*
X143533730Y-79202625D01*
X144021906Y-79202625D01*
X144021535Y-79183220D01*
X144019443Y-79160048D01*
X143526786Y-79160048D01*
X143526678Y-79164820D01*
X143522638Y-79164910D01*
X143512942Y-79159731D01*
X143495867Y-79148694D01*
X143473375Y-79133674D01*
X143454253Y-79120686D01*
X143429922Y-79103857D01*
X143402563Y-79084731D01*
X143374357Y-79064853D01*
X143347487Y-79045768D01*
X143324133Y-79029018D01*
X143306476Y-79016149D01*
X143296698Y-79008704D01*
X143295966Y-79008080D01*
X143297952Y-79006761D01*
X143309268Y-79008707D01*
X143327201Y-79013149D01*
X143349039Y-79019319D01*
X143372068Y-79026448D01*
X143393577Y-79033768D01*
X143410851Y-79040510D01*
X143411599Y-79040838D01*
X143453076Y-79063417D01*
X143486916Y-79090577D01*
X143511419Y-79120659D01*
X143524687Y-79151184D01*
X143526786Y-79160048D01*
X144019443Y-79160048D01*
X144019203Y-79157400D01*
X144014957Y-79134498D01*
X144013756Y-79129563D01*
X143991010Y-79061981D01*
X143958215Y-79000038D01*
X143915097Y-78943516D01*
X143861385Y-78892200D01*
X143796805Y-78845874D01*
X143721087Y-78804321D01*
X143633956Y-78767324D01*
X143535140Y-78734667D01*
X143505921Y-78726430D01*
X143424409Y-78707921D01*
X143332648Y-78693849D01*
X143232370Y-78684441D01*
X143153504Y-78680608D01*
X143030483Y-78676852D01*
X143033734Y-78590488D01*
X143037817Y-78532575D01*
X143045757Y-78485085D01*
X143058287Y-78446128D01*
X143076143Y-78413816D01*
X143100060Y-78386262D01*
X143119696Y-78369632D01*
X143147778Y-78351913D01*
X143179407Y-78339784D01*
X143217223Y-78332583D01*
X143263864Y-78329647D01*
X143279519Y-78329499D01*
X143315492Y-78330235D01*
X143347062Y-78332934D01*
X143376890Y-78338335D01*
X143407634Y-78347178D01*
X143441954Y-78360201D01*
X143482510Y-78378143D01*
X143521809Y-78396814D01*
X143570379Y-78419404D01*
X143610572Y-78435739D01*
X143644718Y-78446393D01*
X143675147Y-78451940D01*
X143704189Y-78452953D01*
X143734174Y-78450008D01*
X143736420Y-78449660D01*
X143761460Y-78444254D01*
X143783266Y-78435687D01*
X143803300Y-78422556D01*
X143823025Y-78403462D01*
X143843901Y-78377005D01*
X143867391Y-78341784D01*
X143893029Y-78299659D01*
X143910865Y-78269329D01*
X143926175Y-78242866D01*
X143937879Y-78222170D01*
X143944900Y-78209137D01*
X143946451Y-78205587D01*
X143941377Y-78198066D01*
X143927405Y-78185172D01*
X143906409Y-78168257D01*
X143880263Y-78148675D01*
X143850841Y-78127779D01*
X143820016Y-78106922D01*
X143789662Y-78087459D01*
X143761654Y-78070741D01*
X143753270Y-78066072D01*
X143665310Y-78024007D01*
X143569537Y-77988880D01*
X143469405Y-77961767D01*
X143368366Y-77943744D01*
X143355363Y-77942127D01*
X143311783Y-77938391D01*
X143262063Y-77936449D01*
X143209056Y-77936203D01*
X143155614Y-77937558D01*
X143104590Y-77940414D01*
X143058836Y-77944677D01*
X143021204Y-77950248D01*
X143004057Y-77954085D01*
X142951681Y-77970691D01*
X142896607Y-77992560D01*
X142844752Y-78017210D01*
X142817943Y-78032126D01*
X142770792Y-78065504D01*
X142723521Y-78108472D01*
X142678518Y-78158168D01*
X142638166Y-78211732D01*
X142604853Y-78266303D01*
X142582782Y-78314122D01*
X142565685Y-78359070D01*
X142517636Y-78303634D01*
X142452558Y-78225404D01*
X142387548Y-78141332D01*
X142324954Y-78054693D01*
X142267128Y-77968763D01*
X142216418Y-77886815D01*
X142207362Y-77871235D01*
X142168450Y-77803496D01*
X142168450Y-77212239D01*
X142074788Y-77210482D01*
X141981125Y-77208725D01*
X141981647Y-77078550D01*
X141982008Y-77031651D01*
X141982827Y-76994523D01*
X141984346Y-76964236D01*
X141986806Y-76937863D01*
X141990446Y-76912474D01*
X141995508Y-76885142D01*
X141998900Y-76868629D01*
X142030060Y-76750777D01*
X142073173Y-76636863D01*
X142128080Y-76526996D01*
X142194625Y-76421286D01*
X142272651Y-76319842D01*
X142362000Y-76222773D01*
X142462516Y-76130190D01*
X142574042Y-76042202D01*
X142696419Y-75958917D01*
X142829492Y-75880446D01*
X142973102Y-75806897D01*
X143127094Y-75738381D01*
X143291309Y-75675007D01*
X143465591Y-75616883D01*
X143649782Y-75564121D01*
X143843725Y-75516828D01*
X143981375Y-75487795D01*
X144180891Y-75451544D01*
X144383422Y-75421407D01*
X144590438Y-75397254D01*
X144803406Y-75378954D01*
X145023795Y-75366375D01*
X145253072Y-75359388D01*
X145441219Y-75357735D01*
X145725712Y-75361476D01*
X146008530Y-75372740D01*
X146291700Y-75391704D01*
X146577252Y-75418545D01*
X146867216Y-75453440D01*
X147163621Y-75496564D01*
X147308775Y-75520238D01*
X147632310Y-75578994D01*
X147953850Y-75645738D01*
X148272731Y-75720213D01*
X148588288Y-75802165D01*
X148899857Y-75891336D01*
X149206773Y-75987469D01*
X149508371Y-76090310D01*
X149803986Y-76199601D01*
X150092953Y-76315086D01*
X150374609Y-76436510D01*
X150648288Y-76563615D01*
X150913325Y-76696145D01*
X151169055Y-76833845D01*
X151414815Y-76976457D01*
X151649939Y-77123726D01*
X151873762Y-77275395D01*
X151888713Y-77285974D01*
X151916961Y-77306167D01*
X151941171Y-77323761D01*
X151959616Y-77337474D01*
X151970567Y-77346029D01*
X151972851Y-77348243D01*
X151967884Y-77346508D01*
X151954768Y-77339561D01*
X151936179Y-77328834D01*
X151933163Y-77327034D01*
X151867577Y-77292398D01*
X151799356Y-77265973D01*
X151726502Y-77247276D01*
X151647015Y-77235821D01*
X151558895Y-77231125D01*
X151536454Y-77230949D01*
X151486945Y-77231596D01*
X151446137Y-77233747D01*
X151410085Y-77237720D01*
X151374844Y-77243833D01*
X151373773Y-77244050D01*
X151346586Y-77249898D01*
X151324254Y-77255312D01*
X151309587Y-77259576D01*
X151305367Y-77261513D01*
X151304477Y-77268888D01*
X151304215Y-77287013D01*
X151304552Y-77313954D01*
X151305459Y-77347780D01*
X151306907Y-77386557D01*
X151307458Y-77399225D01*
X151309652Y-77445028D01*
X151311715Y-77479965D01*
X151313865Y-77505862D01*
X151316324Y-77524548D01*
X151319309Y-77537849D01*
X151323042Y-77547595D01*
X151325893Y-77552761D01*
X151339591Y-77569538D01*
X151358561Y-77582447D01*
X151384591Y-77592130D01*
X151419471Y-77599230D01*
X151464990Y-77604388D01*
X151471200Y-77604903D01*
X151518537Y-77609655D01*
X151555745Y-77615891D01*
X151585381Y-77624412D01*
X151609997Y-77636019D01*
X151632147Y-77651514D01*
X151639424Y-77657681D01*
X151669115Y-77690459D01*
X151691571Y-77730617D01*
X151707112Y-77779131D01*
X151716059Y-77836975D01*
X151718740Y-77899287D01*
X151718850Y-77967550D01*
X151318800Y-77967550D01*
X151318800Y-78316800D01*
X151699800Y-78316800D01*
X151699800Y-79669350D01*
X152220500Y-79669350D01*
X152220500Y-78317700D01*
X152257013Y-78310486D01*
X152314197Y-78297832D01*
X152359809Y-78284567D01*
X152394975Y-78270190D01*
X152420821Y-78254201D01*
X152438476Y-78236100D01*
X152443841Y-78227521D01*
X152448005Y-78218281D01*
X152451056Y-78207037D01*
X152453159Y-78191779D01*
X152454480Y-78170497D01*
X152455184Y-78141181D01*
X152455438Y-78101824D01*
X152455450Y-78086711D01*
X152455450Y-77967550D01*
X152220500Y-77967550D01*
X152220495Y-77915162D01*
X152219032Y-77862333D01*
X152214955Y-77806719D01*
X152208721Y-77752566D01*
X152200787Y-77704121D01*
X152195044Y-77678142D01*
X152186857Y-77651700D01*
X152174417Y-77618634D01*
X152159527Y-77583486D01*
X152146432Y-77555652D01*
X152127870Y-77519970D01*
X152110728Y-77491612D01*
X152091854Y-77466056D01*
X152068097Y-77438777D01*
X152055977Y-77425793D01*
X152001425Y-77368107D01*
X152077625Y-77425949D01*
X152210373Y-77530480D01*
X152339361Y-77639493D01*
X152463402Y-77751793D01*
X152581309Y-77866185D01*
X152691892Y-77981475D01*
X152793965Y-78096467D01*
X152886339Y-78209969D01*
X152967825Y-78320783D01*
X152968662Y-78321991D01*
X153047079Y-78442705D01*
X153115551Y-78563800D01*
X153173854Y-78684586D01*
X153221762Y-78804374D01*
X153259050Y-78922474D01*
X153285495Y-79038197D01*
X153300870Y-79150854D01*
X153304951Y-79259754D01*
X153439229Y-79259754D01*
X153439071Y-79210576D01*
X153437235Y-79152501D01*
X153433757Y-79100346D01*
X153430062Y-79067281D01*
X153405560Y-78936151D01*
X153368529Y-78803904D01*
X153319076Y-78670725D01*
X153257304Y-78536796D01*
X153183320Y-78402301D01*
X153097229Y-78267424D01*
X152999134Y-78132349D01*
X152889143Y-77997258D01*
X152767359Y-77862335D01*
X152699925Y-77792826D01*
X152545133Y-77644388D01*
X152378312Y-77498493D01*
X152210556Y-77363886D01*
X151990344Y-77363886D01*
X151989475Y-77364300D01*
X151983680Y-77359829D01*
X151982375Y-77357950D01*
X151980757Y-77352013D01*
X151981626Y-77351600D01*
X151987421Y-77356070D01*
X151988725Y-77357950D01*
X151990344Y-77363886D01*
X152210556Y-77363886D01*
X152199922Y-77355354D01*
X152010419Y-77215187D01*
X151810262Y-77078206D01*
X151599906Y-76944628D01*
X151379811Y-76814665D01*
X151150434Y-76688535D01*
X150912231Y-76566450D01*
X150665662Y-76448627D01*
X150411182Y-76335280D01*
X150149250Y-76226625D01*
X149880323Y-76122875D01*
X149604858Y-76024247D01*
X149323314Y-75930954D01*
X149036148Y-75843212D01*
X148743816Y-75761236D01*
X148446778Y-75685241D01*
X148145489Y-75615441D01*
X147997592Y-75583805D01*
X147688611Y-75523231D01*
X147382807Y-75470926D01*
X147077200Y-75426486D01*
X146768814Y-75389506D01*
X146454667Y-75359583D01*
X146210225Y-75341311D01*
X146160596Y-75338542D01*
X146100035Y-75336028D01*
X146030308Y-75333782D01*
X145953182Y-75331823D01*
X145870421Y-75330164D01*
X145783792Y-75328822D01*
X145695062Y-75327813D01*
X145605995Y-75327152D01*
X145518358Y-75326856D01*
X145433918Y-75326939D01*
X145433918Y-75326939D01*
G37*
X145433918Y-75326939D02*
X145354439Y-75327419D01*
X145281688Y-75328309D01*
X145217430Y-75329628D01*
X145163433Y-75331389D01*
X145152560Y-75331863D01*
X144902274Y-75346551D01*
X144662701Y-75367083D01*
X144433233Y-75393544D01*
X144213261Y-75426022D01*
X144002178Y-75464602D01*
X143799377Y-75509369D01*
X143671978Y-75541756D01*
X143483278Y-75596285D01*
X143305080Y-75655908D01*
X143137493Y-75720534D01*
X142980628Y-75790070D01*
X142834596Y-75864424D01*
X142699509Y-75943505D01*
X142575476Y-76027221D01*
X142462609Y-76115479D01*
X142361018Y-76208188D01*
X142270814Y-76305256D01*
X142192107Y-76406591D01*
X142125010Y-76512101D01*
X142069631Y-76621695D01*
X142026083Y-76735279D01*
X141994475Y-76852763D01*
X141978156Y-76947246D01*
X141975888Y-76971102D01*
X141973960Y-77004102D01*
X141972521Y-77042693D01*
X141971717Y-77083321D01*
X141971600Y-77104409D01*
X141971600Y-77211900D01*
X141654100Y-77211900D01*
X141654100Y-78140176D01*
X141620763Y-78110186D01*
X141565330Y-78066302D01*
X141501956Y-78026273D01*
X141434745Y-77992338D01*
X141367804Y-77966736D01*
X141346125Y-77960405D01*
X141304866Y-77952057D01*
X141255463Y-77946258D01*
X141201618Y-77943085D01*
X141147035Y-77942612D01*
X141095417Y-77944914D01*
X141050467Y-77950067D01*
X141030472Y-77954012D01*
X140951567Y-77979079D01*
X140878966Y-78015119D01*
X140812786Y-78062015D01*
X140753142Y-78119650D01*
X140700150Y-78187907D01*
X140653927Y-78266669D01*
X140614589Y-78355818D01*
X140604325Y-78384058D01*
X140582779Y-78452463D01*
X140566326Y-78519961D01*
X140554616Y-78589185D01*
X140547298Y-78662771D01*
X140544019Y-78743354D01*
X140544416Y-78833029D01*
X140546817Y-78902044D01*
X140551027Y-78961537D01*
X140557516Y-79014617D01*
X140566749Y-79064392D01*
X140579197Y-79113970D01*
X140594026Y-79162498D01*
X140630635Y-79257021D01*
X140676118Y-79344520D01*
X140729795Y-79424181D01*
X140790992Y-79495190D01*
X140859030Y-79556732D01*
X140933234Y-79607994D01*
X140989081Y-79637606D01*
X141033230Y-79656823D01*
X141074230Y-79671102D01*
X141115550Y-79681192D01*
X141160660Y-79687844D01*
X141213028Y-79691807D01*
X141245675Y-79693097D01*
X141303423Y-79693790D01*
X141351674Y-79691689D01*
X141393416Y-79686316D01*
X141431637Y-79677193D01*
X141469327Y-79663840D01*
X141493285Y-79653436D01*
X141529013Y-79635775D01*
X141560282Y-79617080D01*
X141590686Y-79594845D01*
X141623819Y-79566568D01*
X141642285Y-79549610D01*
X141690025Y-79505027D01*
X141698101Y-79547501D01*
X141708606Y-79590542D01*
X141721971Y-79622492D01*
X141738956Y-79644784D01*
X141756117Y-79656862D01*
X141763816Y-79660409D01*
X141772449Y-79663215D01*
X141783518Y-79665367D01*
X141798527Y-79666950D01*
X141818979Y-79668051D01*
X141846377Y-79668756D01*
X141882225Y-79669149D01*
X141928026Y-79669318D01*
X141974501Y-79669350D01*
X142168408Y-79669350D01*
X142170017Y-78750603D01*
X142170474Y-78489354D01*
X141654100Y-78489354D01*
X141654100Y-79204623D01*
X141623359Y-79232262D01*
X141576859Y-79265941D01*
X141522956Y-79291142D01*
X141464254Y-79307205D01*
X141403358Y-79313473D01*
X141342870Y-79309286D01*
X141328976Y-79306709D01*
X141275933Y-79289305D01*
X141228218Y-79260627D01*
X141186181Y-79221086D01*
X141150175Y-79171094D01*
X141120552Y-79111062D01*
X141097664Y-79041402D01*
X141095895Y-79034470D01*
X141083134Y-78969763D01*
X141075183Y-78899292D01*
X141071891Y-78825405D01*
X141073106Y-78750449D01*
X141078677Y-78676772D01*
X141088450Y-78606721D01*
X141102276Y-78542644D01*
X141120001Y-78486888D01*
X141133250Y-78456797D01*
X141162040Y-78410055D01*
X141195996Y-78374542D01*
X141236087Y-78349673D01*
X141283276Y-78334865D01*
X141338532Y-78329534D01*
X141343860Y-78329500D01*
X141408136Y-78333672D01*
X141465095Y-78346828D01*
X141517013Y-78369928D01*
X141566171Y-78403933D01*
X141604888Y-78439477D01*
X141654100Y-78489354D01*
X142170474Y-78489354D01*
X142171625Y-77831857D01*
X142205729Y-77891766D01*
X142250403Y-77965880D01*
X142302839Y-78045378D01*
X142361055Y-78127498D01*
X142423068Y-78209477D01*
X142486898Y-78288552D01*
X142509683Y-78315477D01*
X142560278Y-78374479D01*
X142547160Y-78423427D01*
X142544951Y-78431983D01*
X142543001Y-78440702D01*
X142541291Y-78450403D01*
X142539800Y-78461905D01*
X142538511Y-78476027D01*
X142537404Y-78493588D01*
X142536459Y-78515408D01*
X142535658Y-78542304D01*
X142534981Y-78575096D01*
X142534410Y-78614603D01*
X142533924Y-78661643D01*
X142533506Y-78717037D01*
X142533135Y-78781603D01*
X142532792Y-78856159D01*
X142532459Y-78941525D01*
X142532117Y-79038520D01*
X142532006Y-79070862D01*
X142529970Y-79669349D01*
X142677823Y-79669314D01*
X142721982Y-79669024D01*
X142762853Y-79668229D01*
X142798328Y-79667010D01*
X142826295Y-79665449D01*
X142844647Y-79663627D01*
X142849291Y-79662720D01*
X142874903Y-79652204D01*
X142897072Y-79635067D01*
X142916938Y-79609834D01*
X142935641Y-79575029D01*
X142954322Y-79529179D01*
X142955887Y-79524887D01*
X142963576Y-79504822D01*
X142969859Y-79490551D01*
X142973340Y-79485200D01*
X142979315Y-79488818D01*
X142993224Y-79498649D01*
X143012941Y-79513156D01*
X143034401Y-79529326D01*
X143102726Y-79578126D01*
X143167031Y-79617023D01*
X143229625Y-79647124D01*
X143292815Y-79669538D01*
X143358912Y-79685372D01*
X143360096Y-79685595D01*
X143398297Y-79690684D01*
X143444591Y-79693617D01*
X143495723Y-79694484D01*
X143548436Y-79693374D01*
X143599476Y-79690378D01*
X143645585Y-79685585D01*
X143683509Y-79679086D01*
X143694415Y-79676377D01*
X143763878Y-79652816D01*
X143823919Y-79622638D01*
X143876767Y-79584281D01*
X143924651Y-79536181D01*
X143960937Y-79489559D01*
X143964838Y-79485451D01*
X143970292Y-79484154D01*
X143979132Y-79486385D01*
X143993192Y-79492861D01*
X144014307Y-79504298D01*
X144044311Y-79521413D01*
X144048260Y-79523689D01*
X144309863Y-79668646D01*
X144582190Y-79808159D01*
X144864352Y-79941930D01*
X145155461Y-80069660D01*
X145454628Y-80191049D01*
X145760967Y-80305796D01*
X146073587Y-80413604D01*
X146391601Y-80514172D01*
X146714121Y-80607200D01*
X147040258Y-80692390D01*
X147369124Y-80769441D01*
X147699830Y-80838055D01*
X148031489Y-80897931D01*
X148207300Y-80926013D01*
X148263323Y-80934345D01*
X148324521Y-80943077D01*
X148389466Y-80952033D01*
X148456730Y-80961038D01*
X148524885Y-80969917D01*
X148592500Y-80978495D01*
X148658150Y-80986596D01*
X148720404Y-80994046D01*
X148777834Y-81000670D01*
X148829012Y-81006291D01*
X148872509Y-81010735D01*
X148906898Y-81013826D01*
X148930749Y-81015390D01*
X148937362Y-81015550D01*
X148940255Y-81015775D01*
X148942679Y-81017140D01*
X148944676Y-81020676D01*
X148946287Y-81027415D01*
X148947553Y-81038388D01*
X148948516Y-81054627D01*
X148949217Y-81077164D01*
X148949698Y-81107030D01*
X148950001Y-81145257D01*
X148950166Y-81192877D01*
X148950235Y-81250922D01*
X148950250Y-81320423D01*
X148950250Y-81656900D01*
X149064430Y-81656900D01*
X149066078Y-81349168D01*
X149067725Y-81041437D01*
X149690025Y-81375428D01*
X149772678Y-81419765D01*
X149852293Y-81462427D01*
X149928144Y-81503028D01*
X149999507Y-81541181D01*
X150065655Y-81576501D01*
X150125865Y-81608601D01*
X150179409Y-81637095D01*
X150225564Y-81661596D01*
X150263604Y-81681719D01*
X150292804Y-81697077D01*
X150312438Y-81707283D01*
X150321781Y-81711953D01*
X150322403Y-81712204D01*
X150325276Y-81711897D01*
X150327627Y-81708385D01*
X150329551Y-81700403D01*
X150331140Y-81686690D01*
X150332488Y-81665982D01*
X150333689Y-81637015D01*
X150334836Y-81598527D01*
X150336023Y-81549254D01*
X150336680Y-81519257D01*
X150337804Y-81461933D01*
X150338815Y-81400943D01*
X150339672Y-81339600D01*
X150340331Y-81281217D01*
X150340751Y-81229108D01*
X150340889Y-81188875D01*
X150340900Y-81054225D01*
X150361538Y-81051082D01*
X150376036Y-81049531D01*
X150399804Y-81047695D01*
X150429424Y-81045814D01*
X150458375Y-81044276D01*
X150488687Y-81042527D01*
X150528262Y-81039812D01*
X150573726Y-81036387D01*
X150621700Y-81032507D01*
X150668809Y-81028427D01*
X150674275Y-81027934D01*
X150902693Y-81003782D01*
X151122724Y-80973602D01*
X151334163Y-80937493D01*
X151536803Y-80895557D01*
X151730439Y-80847895D01*
X151914866Y-80794609D01*
X152089877Y-80735800D01*
X152255266Y-80671568D01*
X152410829Y-80602015D01*
X152556360Y-80527242D01*
X152691651Y-80447351D01*
X152816499Y-80362441D01*
X152930697Y-80272616D01*
X153034040Y-80177975D01*
X153126321Y-80078620D01*
X153207335Y-79974652D01*
X153276877Y-79866172D01*
X153334740Y-79753282D01*
X153353063Y-79710625D01*
X153381421Y-79632530D01*
X153405527Y-79549087D01*
X153423746Y-79466303D01*
X153429996Y-79428021D01*
X153434726Y-79383294D01*
X153437815Y-79329675D01*
X153439264Y-79270868D01*
X153439229Y-79259754D01*
X153304951Y-79259754D01*
X153300405Y-79339150D01*
X153283035Y-79456994D01*
X153255083Y-79569195D01*
X153216213Y-79676438D01*
X153166088Y-79779410D01*
X153104374Y-79878799D01*
X153030733Y-79975292D01*
X152944830Y-80069574D01*
X152941253Y-80073189D01*
X152841076Y-80165953D01*
X152729293Y-80254158D01*
X152606197Y-80337688D01*
X152472081Y-80416426D01*
X152327237Y-80490252D01*
X152171957Y-80559051D01*
X152006536Y-80622704D01*
X151831265Y-80681094D01*
X151646437Y-80734104D01*
X151452344Y-80781615D01*
X151249280Y-80823510D01*
X151037537Y-80859672D01*
X150951321Y-80872386D01*
X150898505Y-80879433D01*
X150837370Y-80886914D01*
X150770361Y-80894583D01*
X150699923Y-80902193D01*
X150628502Y-80909498D01*
X150558540Y-80916252D01*
X150492484Y-80922209D01*
X150432779Y-80927123D01*
X150381868Y-80930746D01*
X150358418Y-80932105D01*
X150341011Y-80933000D01*
X150337725Y-80254534D01*
X149067725Y-80925982D01*
X149064435Y-80278950D01*
X148950250Y-80278950D01*
X148950250Y-80913950D01*
X148926024Y-80913950D01*
X148909533Y-80913253D01*
X148882124Y-80911276D01*
X148845498Y-80908190D01*
X148801354Y-80904164D01*
X148751393Y-80899368D01*
X148697314Y-80893972D01*
X148640817Y-80888148D01*
X148583602Y-80882063D01*
X148527369Y-80875890D01*
X148473817Y-80869797D01*
X148424647Y-80863955D01*
X148416850Y-80863000D01*
X148064579Y-80814587D01*
X147712641Y-80756265D01*
X147361996Y-80688311D01*
X147013602Y-80611005D01*
X146668416Y-80524624D01*
X146327397Y-80429446D01*
X145991503Y-80325750D01*
X145661692Y-80213815D01*
X145338923Y-80093918D01*
X145024152Y-79966337D01*
X144718339Y-79831351D01*
X144489375Y-79722444D01*
X144387775Y-79672525D01*
X144624313Y-79670860D01*
X144860850Y-79669195D01*
X144860850Y-77211900D01*
X144346500Y-77211900D01*
X144346500Y-79650441D01*
X144296733Y-79625419D01*
X144271614Y-79612468D01*
X144238094Y-79594724D01*
X144198833Y-79573637D01*
X144156491Y-79550653D01*
X144113729Y-79527220D01*
X144073205Y-79504788D01*
X144037581Y-79484804D01*
X144019278Y-79474369D01*
X143980980Y-79452343D01*
X143999623Y-79397334D01*
X144007749Y-79371663D01*
X144013387Y-79348557D01*
X144017122Y-79324197D01*
X144019540Y-79294766D01*
X144021223Y-79256563D01*
X144022145Y-79215195D01*
X144021906Y-79202625D01*
X143533730Y-79202625D01*
X143529935Y-79231050D01*
X143521520Y-79264907D01*
X143506835Y-79295459D01*
X143489941Y-79316308D01*
X143476311Y-79325345D01*
X143456120Y-79335193D01*
X143443228Y-79340282D01*
X143414995Y-79346831D01*
X143378211Y-79350358D01*
X143336635Y-79350965D01*
X143294026Y-79348759D01*
X143254142Y-79343842D01*
X143220741Y-79336320D01*
X143213456Y-79333905D01*
X143150237Y-79304292D01*
X143089783Y-79262304D01*
X143069578Y-79244954D01*
X143032050Y-79211084D01*
X143032050Y-78983550D01*
X143090788Y-78983595D01*
X143140274Y-78984223D01*
X143179123Y-78986239D01*
X143209352Y-78989967D01*
X143232980Y-78995732D01*
X143252025Y-79003861D01*
X143264266Y-79011524D01*
X143277436Y-79020897D01*
X143299064Y-79036259D01*
X143327244Y-79056259D01*
X143360072Y-79079544D01*
X143395641Y-79104762D01*
X143412766Y-79116900D01*
X143533730Y-79202625D01*
X144021906Y-79202625D01*
X144021535Y-79183220D01*
X144019443Y-79160048D01*
X143526786Y-79160048D01*
X143526678Y-79164820D01*
X143522638Y-79164910D01*
X143512942Y-79159731D01*
X143495867Y-79148694D01*
X143473375Y-79133674D01*
X143454253Y-79120686D01*
X143429922Y-79103857D01*
X143402563Y-79084731D01*
X143374357Y-79064853D01*
X143347487Y-79045768D01*
X143324133Y-79029018D01*
X143306476Y-79016149D01*
X143296698Y-79008704D01*
X143295966Y-79008080D01*
X143297952Y-79006761D01*
X143309268Y-79008707D01*
X143327201Y-79013149D01*
X143349039Y-79019319D01*
X143372068Y-79026448D01*
X143393577Y-79033768D01*
X143410851Y-79040510D01*
X143411599Y-79040838D01*
X143453076Y-79063417D01*
X143486916Y-79090577D01*
X143511419Y-79120659D01*
X143524687Y-79151184D01*
X143526786Y-79160048D01*
X144019443Y-79160048D01*
X144019203Y-79157400D01*
X144014957Y-79134498D01*
X144013756Y-79129563D01*
X143991010Y-79061981D01*
X143958215Y-79000038D01*
X143915097Y-78943516D01*
X143861385Y-78892200D01*
X143796805Y-78845874D01*
X143721087Y-78804321D01*
X143633956Y-78767324D01*
X143535140Y-78734667D01*
X143505921Y-78726430D01*
X143424409Y-78707921D01*
X143332648Y-78693849D01*
X143232370Y-78684441D01*
X143153504Y-78680608D01*
X143030483Y-78676852D01*
X143033734Y-78590488D01*
X143037817Y-78532575D01*
X143045757Y-78485085D01*
X143058287Y-78446128D01*
X143076143Y-78413816D01*
X143100060Y-78386262D01*
X143119696Y-78369632D01*
X143147778Y-78351913D01*
X143179407Y-78339784D01*
X143217223Y-78332583D01*
X143263864Y-78329647D01*
X143279519Y-78329499D01*
X143315492Y-78330235D01*
X143347062Y-78332934D01*
X143376890Y-78338335D01*
X143407634Y-78347178D01*
X143441954Y-78360201D01*
X143482510Y-78378143D01*
X143521809Y-78396814D01*
X143570379Y-78419404D01*
X143610572Y-78435739D01*
X143644718Y-78446393D01*
X143675147Y-78451940D01*
X143704189Y-78452953D01*
X143734174Y-78450008D01*
X143736420Y-78449660D01*
X143761460Y-78444254D01*
X143783266Y-78435687D01*
X143803300Y-78422556D01*
X143823025Y-78403462D01*
X143843901Y-78377005D01*
X143867391Y-78341784D01*
X143893029Y-78299659D01*
X143910865Y-78269329D01*
X143926175Y-78242866D01*
X143937879Y-78222170D01*
X143944900Y-78209137D01*
X143946451Y-78205587D01*
X143941377Y-78198066D01*
X143927405Y-78185172D01*
X143906409Y-78168257D01*
X143880263Y-78148675D01*
X143850841Y-78127779D01*
X143820016Y-78106922D01*
X143789662Y-78087459D01*
X143761654Y-78070741D01*
X143753270Y-78066072D01*
X143665310Y-78024007D01*
X143569537Y-77988880D01*
X143469405Y-77961767D01*
X143368366Y-77943744D01*
X143355363Y-77942127D01*
X143311783Y-77938391D01*
X143262063Y-77936449D01*
X143209056Y-77936203D01*
X143155614Y-77937558D01*
X143104590Y-77940414D01*
X143058836Y-77944677D01*
X143021204Y-77950248D01*
X143004057Y-77954085D01*
X142951681Y-77970691D01*
X142896607Y-77992560D01*
X142844752Y-78017210D01*
X142817943Y-78032126D01*
X142770792Y-78065504D01*
X142723521Y-78108472D01*
X142678518Y-78158168D01*
X142638166Y-78211732D01*
X142604853Y-78266303D01*
X142582782Y-78314122D01*
X142565685Y-78359070D01*
X142517636Y-78303634D01*
X142452558Y-78225404D01*
X142387548Y-78141332D01*
X142324954Y-78054693D01*
X142267128Y-77968763D01*
X142216418Y-77886815D01*
X142207362Y-77871235D01*
X142168450Y-77803496D01*
X142168450Y-77212239D01*
X142074788Y-77210482D01*
X141981125Y-77208725D01*
X141981647Y-77078550D01*
X141982008Y-77031651D01*
X141982827Y-76994523D01*
X141984346Y-76964236D01*
X141986806Y-76937863D01*
X141990446Y-76912474D01*
X141995508Y-76885142D01*
X141998900Y-76868629D01*
X142030060Y-76750777D01*
X142073173Y-76636863D01*
X142128080Y-76526996D01*
X142194625Y-76421286D01*
X142272651Y-76319842D01*
X142362000Y-76222773D01*
X142462516Y-76130190D01*
X142574042Y-76042202D01*
X142696419Y-75958917D01*
X142829492Y-75880446D01*
X142973102Y-75806897D01*
X143127094Y-75738381D01*
X143291309Y-75675007D01*
X143465591Y-75616883D01*
X143649782Y-75564121D01*
X143843725Y-75516828D01*
X143981375Y-75487795D01*
X144180891Y-75451544D01*
X144383422Y-75421407D01*
X144590438Y-75397254D01*
X144803406Y-75378954D01*
X145023795Y-75366375D01*
X145253072Y-75359388D01*
X145441219Y-75357735D01*
X145725712Y-75361476D01*
X146008530Y-75372740D01*
X146291700Y-75391704D01*
X146577252Y-75418545D01*
X146867216Y-75453440D01*
X147163621Y-75496564D01*
X147308775Y-75520238D01*
X147632310Y-75578994D01*
X147953850Y-75645738D01*
X148272731Y-75720213D01*
X148588288Y-75802165D01*
X148899857Y-75891336D01*
X149206773Y-75987469D01*
X149508371Y-76090310D01*
X149803986Y-76199601D01*
X150092953Y-76315086D01*
X150374609Y-76436510D01*
X150648288Y-76563615D01*
X150913325Y-76696145D01*
X151169055Y-76833845D01*
X151414815Y-76976457D01*
X151649939Y-77123726D01*
X151873762Y-77275395D01*
X151888713Y-77285974D01*
X151916961Y-77306167D01*
X151941171Y-77323761D01*
X151959616Y-77337474D01*
X151970567Y-77346029D01*
X151972851Y-77348243D01*
X151967884Y-77346508D01*
X151954768Y-77339561D01*
X151936179Y-77328834D01*
X151933163Y-77327034D01*
X151867577Y-77292398D01*
X151799356Y-77265973D01*
X151726502Y-77247276D01*
X151647015Y-77235821D01*
X151558895Y-77231125D01*
X151536454Y-77230949D01*
X151486945Y-77231596D01*
X151446137Y-77233747D01*
X151410085Y-77237720D01*
X151374844Y-77243833D01*
X151373773Y-77244050D01*
X151346586Y-77249898D01*
X151324254Y-77255312D01*
X151309587Y-77259576D01*
X151305367Y-77261513D01*
X151304477Y-77268888D01*
X151304215Y-77287013D01*
X151304552Y-77313954D01*
X151305459Y-77347780D01*
X151306907Y-77386557D01*
X151307458Y-77399225D01*
X151309652Y-77445028D01*
X151311715Y-77479965D01*
X151313865Y-77505862D01*
X151316324Y-77524548D01*
X151319309Y-77537849D01*
X151323042Y-77547595D01*
X151325893Y-77552761D01*
X151339591Y-77569538D01*
X151358561Y-77582447D01*
X151384591Y-77592130D01*
X151419471Y-77599230D01*
X151464990Y-77604388D01*
X151471200Y-77604903D01*
X151518537Y-77609655D01*
X151555745Y-77615891D01*
X151585381Y-77624412D01*
X151609997Y-77636019D01*
X151632147Y-77651514D01*
X151639424Y-77657681D01*
X151669115Y-77690459D01*
X151691571Y-77730617D01*
X151707112Y-77779131D01*
X151716059Y-77836975D01*
X151718740Y-77899287D01*
X151718850Y-77967550D01*
X151318800Y-77967550D01*
X151318800Y-78316800D01*
X151699800Y-78316800D01*
X151699800Y-79669350D01*
X152220500Y-79669350D01*
X152220500Y-78317700D01*
X152257013Y-78310486D01*
X152314197Y-78297832D01*
X152359809Y-78284567D01*
X152394975Y-78270190D01*
X152420821Y-78254201D01*
X152438476Y-78236100D01*
X152443841Y-78227521D01*
X152448005Y-78218281D01*
X152451056Y-78207037D01*
X152453159Y-78191779D01*
X152454480Y-78170497D01*
X152455184Y-78141181D01*
X152455438Y-78101824D01*
X152455450Y-78086711D01*
X152455450Y-77967550D01*
X152220500Y-77967550D01*
X152220495Y-77915162D01*
X152219032Y-77862333D01*
X152214955Y-77806719D01*
X152208721Y-77752566D01*
X152200787Y-77704121D01*
X152195044Y-77678142D01*
X152186857Y-77651700D01*
X152174417Y-77618634D01*
X152159527Y-77583486D01*
X152146432Y-77555652D01*
X152127870Y-77519970D01*
X152110728Y-77491612D01*
X152091854Y-77466056D01*
X152068097Y-77438777D01*
X152055977Y-77425793D01*
X152001425Y-77368107D01*
X152077625Y-77425949D01*
X152210373Y-77530480D01*
X152339361Y-77639493D01*
X152463402Y-77751793D01*
X152581309Y-77866185D01*
X152691892Y-77981475D01*
X152793965Y-78096467D01*
X152886339Y-78209969D01*
X152967825Y-78320783D01*
X152968662Y-78321991D01*
X153047079Y-78442705D01*
X153115551Y-78563800D01*
X153173854Y-78684586D01*
X153221762Y-78804374D01*
X153259050Y-78922474D01*
X153285495Y-79038197D01*
X153300870Y-79150854D01*
X153304951Y-79259754D01*
X153439229Y-79259754D01*
X153439071Y-79210576D01*
X153437235Y-79152501D01*
X153433757Y-79100346D01*
X153430062Y-79067281D01*
X153405560Y-78936151D01*
X153368529Y-78803904D01*
X153319076Y-78670725D01*
X153257304Y-78536796D01*
X153183320Y-78402301D01*
X153097229Y-78267424D01*
X152999134Y-78132349D01*
X152889143Y-77997258D01*
X152767359Y-77862335D01*
X152699925Y-77792826D01*
X152545133Y-77644388D01*
X152378312Y-77498493D01*
X152210556Y-77363886D01*
X151990344Y-77363886D01*
X151989475Y-77364300D01*
X151983680Y-77359829D01*
X151982375Y-77357950D01*
X151980757Y-77352013D01*
X151981626Y-77351600D01*
X151987421Y-77356070D01*
X151988725Y-77357950D01*
X151990344Y-77363886D01*
X152210556Y-77363886D01*
X152199922Y-77355354D01*
X152010419Y-77215187D01*
X151810262Y-77078206D01*
X151599906Y-76944628D01*
X151379811Y-76814665D01*
X151150434Y-76688535D01*
X150912231Y-76566450D01*
X150665662Y-76448627D01*
X150411182Y-76335280D01*
X150149250Y-76226625D01*
X149880323Y-76122875D01*
X149604858Y-76024247D01*
X149323314Y-75930954D01*
X149036148Y-75843212D01*
X148743816Y-75761236D01*
X148446778Y-75685241D01*
X148145489Y-75615441D01*
X147997592Y-75583805D01*
X147688611Y-75523231D01*
X147382807Y-75470926D01*
X147077200Y-75426486D01*
X146768814Y-75389506D01*
X146454667Y-75359583D01*
X146210225Y-75341311D01*
X146160596Y-75338542D01*
X146100035Y-75336028D01*
X146030308Y-75333782D01*
X145953182Y-75331823D01*
X145870421Y-75330164D01*
X145783792Y-75328822D01*
X145695062Y-75327813D01*
X145605995Y-75327152D01*
X145518358Y-75326856D01*
X145433918Y-75326939D01*
G04 #@! TD*
M02*
