G04 #@! TF.GenerationSoftware,KiCad,Pcbnew,(5.0.1)-3*
G04 #@! TF.CreationDate,2022-08-31T13:01:13+05:45*
G04 #@! TF.ProjectId,Relay-board,52656C61792D626F6172642E6B696361,rev?*
G04 #@! TF.SameCoordinates,Original*
G04 #@! TF.FileFunction,Soldermask,Bot*
G04 #@! TF.FilePolarity,Negative*
%FSLAX46Y46*%
G04 Gerber Fmt 4.6, Leading zero omitted, Abs format (unit mm)*
G04 Created by KiCad (PCBNEW (5.0.1)-3) date 8/31/2022 1:01:13 PM*
%MOMM*%
%LPD*%
G01*
G04 APERTURE LIST*
%ADD10C,0.100000*%
G04 APERTURE END LIST*
D10*
G36*
X154440442Y-98105518D02*
X154506627Y-98112037D01*
X154619853Y-98146384D01*
X154676467Y-98163557D01*
X154815087Y-98237652D01*
X154832991Y-98247222D01*
X154868729Y-98276552D01*
X154970186Y-98359814D01*
X155053448Y-98461271D01*
X155082778Y-98497009D01*
X155082779Y-98497011D01*
X155166443Y-98653533D01*
X155166443Y-98653534D01*
X155217963Y-98823373D01*
X155235359Y-99000000D01*
X155217963Y-99176627D01*
X155183616Y-99289853D01*
X155166443Y-99346467D01*
X155092348Y-99485087D01*
X155082778Y-99502991D01*
X155053448Y-99538729D01*
X154970186Y-99640186D01*
X154868729Y-99723448D01*
X154832991Y-99752778D01*
X154832989Y-99752779D01*
X154676467Y-99836443D01*
X154619853Y-99853616D01*
X154506627Y-99887963D01*
X154440443Y-99894481D01*
X154374260Y-99901000D01*
X154285740Y-99901000D01*
X154219557Y-99894481D01*
X154153373Y-99887963D01*
X154040147Y-99853616D01*
X153983533Y-99836443D01*
X153827011Y-99752779D01*
X153827009Y-99752778D01*
X153791271Y-99723448D01*
X153689814Y-99640186D01*
X153606552Y-99538729D01*
X153577222Y-99502991D01*
X153567652Y-99485087D01*
X153493557Y-99346467D01*
X153476384Y-99289853D01*
X153442037Y-99176627D01*
X153424641Y-99000000D01*
X153442037Y-98823373D01*
X153493557Y-98653534D01*
X153493557Y-98653533D01*
X153577221Y-98497011D01*
X153577222Y-98497009D01*
X153606552Y-98461271D01*
X153689814Y-98359814D01*
X153791271Y-98276552D01*
X153827009Y-98247222D01*
X153844913Y-98237652D01*
X153983533Y-98163557D01*
X154040147Y-98146384D01*
X154153373Y-98112037D01*
X154219558Y-98105518D01*
X154285740Y-98099000D01*
X154374260Y-98099000D01*
X154440442Y-98105518D01*
X154440442Y-98105518D01*
G37*
G36*
X150151000Y-99901000D02*
X148349000Y-99901000D01*
X148349000Y-98099000D01*
X150151000Y-98099000D01*
X150151000Y-99901000D01*
X150151000Y-99901000D01*
G37*
G36*
X151900442Y-98105518D02*
X151966627Y-98112037D01*
X152079853Y-98146384D01*
X152136467Y-98163557D01*
X152275087Y-98237652D01*
X152292991Y-98247222D01*
X152328729Y-98276552D01*
X152430186Y-98359814D01*
X152513448Y-98461271D01*
X152542778Y-98497009D01*
X152542779Y-98497011D01*
X152626443Y-98653533D01*
X152626443Y-98653534D01*
X152677963Y-98823373D01*
X152695359Y-99000000D01*
X152677963Y-99176627D01*
X152643616Y-99289853D01*
X152626443Y-99346467D01*
X152552348Y-99485087D01*
X152542778Y-99502991D01*
X152513448Y-99538729D01*
X152430186Y-99640186D01*
X152328729Y-99723448D01*
X152292991Y-99752778D01*
X152292989Y-99752779D01*
X152136467Y-99836443D01*
X152079853Y-99853616D01*
X151966627Y-99887963D01*
X151900443Y-99894481D01*
X151834260Y-99901000D01*
X151745740Y-99901000D01*
X151679557Y-99894481D01*
X151613373Y-99887963D01*
X151500147Y-99853616D01*
X151443533Y-99836443D01*
X151287011Y-99752779D01*
X151287009Y-99752778D01*
X151251271Y-99723448D01*
X151149814Y-99640186D01*
X151066552Y-99538729D01*
X151037222Y-99502991D01*
X151027652Y-99485087D01*
X150953557Y-99346467D01*
X150936384Y-99289853D01*
X150902037Y-99176627D01*
X150884641Y-99000000D01*
X150902037Y-98823373D01*
X150953557Y-98653534D01*
X150953557Y-98653533D01*
X151037221Y-98497011D01*
X151037222Y-98497009D01*
X151066552Y-98461271D01*
X151149814Y-98359814D01*
X151251271Y-98276552D01*
X151287009Y-98247222D01*
X151304913Y-98237652D01*
X151443533Y-98163557D01*
X151500147Y-98146384D01*
X151613373Y-98112037D01*
X151679558Y-98105518D01*
X151745740Y-98099000D01*
X151834260Y-98099000D01*
X151900442Y-98105518D01*
X151900442Y-98105518D01*
G37*
G36*
X112525331Y-96268211D02*
X112853092Y-96403974D01*
X113148073Y-96601074D01*
X113398926Y-96851927D01*
X113596026Y-97146908D01*
X113731789Y-97474669D01*
X113801000Y-97822616D01*
X113801000Y-98177384D01*
X113731789Y-98525331D01*
X113596026Y-98853092D01*
X113398926Y-99148073D01*
X113148073Y-99398926D01*
X112853092Y-99596026D01*
X112525331Y-99731789D01*
X112177384Y-99801000D01*
X111822616Y-99801000D01*
X111474669Y-99731789D01*
X111146908Y-99596026D01*
X110851927Y-99398926D01*
X110601074Y-99148073D01*
X110403974Y-98853092D01*
X110268211Y-98525331D01*
X110199000Y-98177384D01*
X110199000Y-97822616D01*
X110268211Y-97474669D01*
X110403974Y-97146908D01*
X110601074Y-96851927D01*
X110851927Y-96601074D01*
X111146908Y-96403974D01*
X111474669Y-96268211D01*
X111822616Y-96199000D01*
X112177384Y-96199000D01*
X112525331Y-96268211D01*
X112525331Y-96268211D01*
G37*
G36*
X178525331Y-96268211D02*
X178853092Y-96403974D01*
X179148073Y-96601074D01*
X179398926Y-96851927D01*
X179596026Y-97146908D01*
X179731789Y-97474669D01*
X179801000Y-97822616D01*
X179801000Y-98177384D01*
X179731789Y-98525331D01*
X179596026Y-98853092D01*
X179398926Y-99148073D01*
X179148073Y-99398926D01*
X178853092Y-99596026D01*
X178525331Y-99731789D01*
X178177384Y-99801000D01*
X177822616Y-99801000D01*
X177474669Y-99731789D01*
X177146908Y-99596026D01*
X176851927Y-99398926D01*
X176601074Y-99148073D01*
X176403974Y-98853092D01*
X176268211Y-98525331D01*
X176199000Y-98177384D01*
X176199000Y-97822616D01*
X176268211Y-97474669D01*
X176403974Y-97146908D01*
X176601074Y-96851927D01*
X176851927Y-96601074D01*
X177146908Y-96403974D01*
X177474669Y-96268211D01*
X177822616Y-96199000D01*
X178177384Y-96199000D01*
X178525331Y-96268211D01*
X178525331Y-96268211D01*
G37*
G36*
X143182527Y-95488736D02*
X143282410Y-95508604D01*
X143564674Y-95625521D01*
X143818705Y-95795259D01*
X144034741Y-96011295D01*
X144204479Y-96265326D01*
X144321396Y-96547590D01*
X144381000Y-96847240D01*
X144381000Y-97152760D01*
X144321396Y-97452410D01*
X144204479Y-97734674D01*
X144034741Y-97988705D01*
X143818705Y-98204741D01*
X143564674Y-98374479D01*
X143282410Y-98491396D01*
X143254181Y-98497011D01*
X142982762Y-98551000D01*
X142677238Y-98551000D01*
X142405819Y-98497011D01*
X142377590Y-98491396D01*
X142095326Y-98374479D01*
X141841295Y-98204741D01*
X141625259Y-97988705D01*
X141455521Y-97734674D01*
X141338604Y-97452410D01*
X141279000Y-97152760D01*
X141279000Y-96847240D01*
X141338604Y-96547590D01*
X141455521Y-96265326D01*
X141625259Y-96011295D01*
X141841295Y-95795259D01*
X142095326Y-95625521D01*
X142377590Y-95508604D01*
X142477473Y-95488736D01*
X142677238Y-95449000D01*
X142982762Y-95449000D01*
X143182527Y-95488736D01*
X143182527Y-95488736D01*
G37*
G36*
X139301000Y-98551000D02*
X136199000Y-98551000D01*
X136199000Y-95449000D01*
X139301000Y-95449000D01*
X139301000Y-98551000D01*
X139301000Y-98551000D01*
G37*
G36*
X127951013Y-81864935D02*
X128192066Y-81888677D01*
X128578681Y-82005955D01*
X128641344Y-82039449D01*
X128934988Y-82196404D01*
X129247293Y-82452707D01*
X129503596Y-82765012D01*
X129660551Y-83058656D01*
X129694045Y-83121319D01*
X129811323Y-83507934D01*
X129850923Y-83910000D01*
X129811323Y-84312066D01*
X129694045Y-84698681D01*
X129694042Y-84698686D01*
X129503596Y-85054988D01*
X129247293Y-85367293D01*
X128934988Y-85623596D01*
X128641344Y-85780551D01*
X128578681Y-85814045D01*
X128192066Y-85931323D01*
X127951013Y-85955065D01*
X127890751Y-85961000D01*
X127189249Y-85961000D01*
X127128987Y-85955065D01*
X126887934Y-85931323D01*
X126501319Y-85814045D01*
X126438656Y-85780551D01*
X126145012Y-85623596D01*
X125832707Y-85367293D01*
X125576404Y-85054988D01*
X125385958Y-84698686D01*
X125385955Y-84698681D01*
X125268677Y-84312066D01*
X125229077Y-83910000D01*
X125268677Y-83507934D01*
X125385955Y-83121319D01*
X125419449Y-83058656D01*
X125576404Y-82765012D01*
X125832707Y-82452707D01*
X126145012Y-82196404D01*
X126438656Y-82039449D01*
X126501319Y-82005955D01*
X126887934Y-81888677D01*
X127128987Y-81864935D01*
X127189249Y-81859000D01*
X127890751Y-81859000D01*
X127951013Y-81864935D01*
X127951013Y-81864935D01*
G37*
G36*
X161351013Y-81674935D02*
X161592066Y-81698677D01*
X161978681Y-81815955D01*
X162041344Y-81849449D01*
X162334988Y-82006404D01*
X162647293Y-82262707D01*
X162903596Y-82575012D01*
X163045974Y-82841384D01*
X163094045Y-82931319D01*
X163211323Y-83317934D01*
X163250923Y-83720000D01*
X163211323Y-84122066D01*
X163094045Y-84508681D01*
X163094042Y-84508686D01*
X162903596Y-84864988D01*
X162647293Y-85177293D01*
X162334988Y-85433596D01*
X162041344Y-85590551D01*
X161978681Y-85624045D01*
X161592066Y-85741323D01*
X161351013Y-85765065D01*
X161290751Y-85771000D01*
X160589249Y-85771000D01*
X160528987Y-85765065D01*
X160287934Y-85741323D01*
X159901319Y-85624045D01*
X159838656Y-85590551D01*
X159545012Y-85433596D01*
X159232707Y-85177293D01*
X158976404Y-84864988D01*
X158785958Y-84508686D01*
X158785955Y-84508681D01*
X158668677Y-84122066D01*
X158629077Y-83720000D01*
X158668677Y-83317934D01*
X158785955Y-82931319D01*
X158834026Y-82841384D01*
X158976404Y-82575012D01*
X159232707Y-82262707D01*
X159545012Y-82006404D01*
X159838656Y-81849449D01*
X159901319Y-81815955D01*
X160287934Y-81698677D01*
X160528987Y-81674935D01*
X160589249Y-81669000D01*
X161290751Y-81669000D01*
X161351013Y-81674935D01*
X161351013Y-81674935D01*
G37*
G36*
X132846565Y-80899389D02*
X133037834Y-80978615D01*
X133209976Y-81093637D01*
X133356363Y-81240024D01*
X133471385Y-81412166D01*
X133550611Y-81603435D01*
X133591000Y-81806484D01*
X133591000Y-82013516D01*
X133550611Y-82216565D01*
X133471385Y-82407834D01*
X133356363Y-82579976D01*
X133209976Y-82726363D01*
X133037834Y-82841385D01*
X132846565Y-82920611D01*
X132643516Y-82961000D01*
X132436484Y-82961000D01*
X132233435Y-82920611D01*
X132042166Y-82841385D01*
X131870024Y-82726363D01*
X131723637Y-82579976D01*
X131608615Y-82407834D01*
X131529389Y-82216565D01*
X131489000Y-82013516D01*
X131489000Y-81806484D01*
X131529389Y-81603435D01*
X131608615Y-81412166D01*
X131723637Y-81240024D01*
X131870024Y-81093637D01*
X132042166Y-80978615D01*
X132233435Y-80899389D01*
X132436484Y-80859000D01*
X132643516Y-80859000D01*
X132846565Y-80899389D01*
X132846565Y-80899389D01*
G37*
G36*
X122846565Y-80899389D02*
X123037834Y-80978615D01*
X123209976Y-81093637D01*
X123356363Y-81240024D01*
X123471385Y-81412166D01*
X123550611Y-81603435D01*
X123591000Y-81806484D01*
X123591000Y-82013516D01*
X123550611Y-82216565D01*
X123471385Y-82407834D01*
X123356363Y-82579976D01*
X123209976Y-82726363D01*
X123037834Y-82841385D01*
X122846565Y-82920611D01*
X122643516Y-82961000D01*
X122436484Y-82961000D01*
X122233435Y-82920611D01*
X122042166Y-82841385D01*
X121870024Y-82726363D01*
X121723637Y-82579976D01*
X121608615Y-82407834D01*
X121529389Y-82216565D01*
X121489000Y-82013516D01*
X121489000Y-81806484D01*
X121529389Y-81603435D01*
X121608615Y-81412166D01*
X121723637Y-81240024D01*
X121870024Y-81093637D01*
X122042166Y-80978615D01*
X122233435Y-80899389D01*
X122436484Y-80859000D01*
X122643516Y-80859000D01*
X122846565Y-80899389D01*
X122846565Y-80899389D01*
G37*
G36*
X156246565Y-80709389D02*
X156437834Y-80788615D01*
X156609976Y-80903637D01*
X156756363Y-81050024D01*
X156871385Y-81222166D01*
X156950611Y-81413435D01*
X156991000Y-81616484D01*
X156991000Y-81823516D01*
X156950611Y-82026565D01*
X156871385Y-82217834D01*
X156756363Y-82389976D01*
X156609976Y-82536363D01*
X156437834Y-82651385D01*
X156246565Y-82730611D01*
X156043516Y-82771000D01*
X155836484Y-82771000D01*
X155633435Y-82730611D01*
X155442166Y-82651385D01*
X155270024Y-82536363D01*
X155123637Y-82389976D01*
X155008615Y-82217834D01*
X154929389Y-82026565D01*
X154889000Y-81823516D01*
X154889000Y-81616484D01*
X154929389Y-81413435D01*
X155008615Y-81222166D01*
X155123637Y-81050024D01*
X155270024Y-80903637D01*
X155442166Y-80788615D01*
X155633435Y-80709389D01*
X155836484Y-80669000D01*
X156043516Y-80669000D01*
X156246565Y-80709389D01*
X156246565Y-80709389D01*
G37*
G36*
X166246565Y-80709389D02*
X166437834Y-80788615D01*
X166609976Y-80903637D01*
X166756363Y-81050024D01*
X166871385Y-81222166D01*
X166950611Y-81413435D01*
X166991000Y-81616484D01*
X166991000Y-81823516D01*
X166950611Y-82026565D01*
X166871385Y-82217834D01*
X166756363Y-82389976D01*
X166609976Y-82536363D01*
X166437834Y-82651385D01*
X166246565Y-82730611D01*
X166043516Y-82771000D01*
X165836484Y-82771000D01*
X165633435Y-82730611D01*
X165442166Y-82651385D01*
X165270024Y-82536363D01*
X165123637Y-82389976D01*
X165008615Y-82217834D01*
X164929389Y-82026565D01*
X164889000Y-81823516D01*
X164889000Y-81616484D01*
X164929389Y-81413435D01*
X165008615Y-81222166D01*
X165123637Y-81050024D01*
X165270024Y-80903637D01*
X165442166Y-80788615D01*
X165633435Y-80709389D01*
X165836484Y-80669000D01*
X166043516Y-80669000D01*
X166246565Y-80709389D01*
X166246565Y-80709389D01*
G37*
G36*
X122692527Y-46368736D02*
X122792410Y-46388604D01*
X123074674Y-46505521D01*
X123328705Y-46675259D01*
X123544741Y-46891295D01*
X123714479Y-47145326D01*
X123831396Y-47427590D01*
X123831396Y-47427591D01*
X123879066Y-47667240D01*
X123891000Y-47727240D01*
X123891000Y-48032760D01*
X123831396Y-48332410D01*
X123714479Y-48614674D01*
X123544741Y-48868705D01*
X123328705Y-49084741D01*
X123074674Y-49254479D01*
X123052651Y-49263601D01*
X123031046Y-49275149D01*
X123011285Y-49291520D01*
X121480860Y-50850822D01*
X121075821Y-51263503D01*
X121060454Y-51282589D01*
X121049105Y-51304307D01*
X121042211Y-51327822D01*
X121040032Y-51351139D01*
X121049783Y-67050000D01*
X121049822Y-67114018D01*
X121052239Y-67138402D01*
X121059367Y-67161847D01*
X121070931Y-67183451D01*
X121086434Y-67202328D01*
X121327304Y-67443198D01*
X121579120Y-67820068D01*
X121729698Y-68183596D01*
X121752574Y-68238824D01*
X121803207Y-68493370D01*
X121841000Y-68683371D01*
X121841000Y-69136629D01*
X121752574Y-69581177D01*
X121579120Y-69999932D01*
X121327304Y-70376802D01*
X121006802Y-70697304D01*
X120629932Y-70949120D01*
X120211177Y-71122574D01*
X119988903Y-71166787D01*
X119766630Y-71211000D01*
X119313370Y-71211000D01*
X119091097Y-71166787D01*
X118868823Y-71122574D01*
X118450068Y-70949120D01*
X118073198Y-70697304D01*
X117752696Y-70376802D01*
X117500880Y-69999932D01*
X117327426Y-69581177D01*
X117239000Y-69136629D01*
X117239000Y-68683371D01*
X117276794Y-68493370D01*
X117327426Y-68238824D01*
X117350302Y-68183596D01*
X117500880Y-67820068D01*
X117752696Y-67443198D01*
X117986095Y-67209799D01*
X118001641Y-67190857D01*
X118013192Y-67169246D01*
X118020305Y-67145797D01*
X118022646Y-67125315D01*
X118039939Y-66571952D01*
X118040000Y-66568048D01*
X118040000Y-50520000D01*
X118157450Y-50128499D01*
X118216033Y-49933222D01*
X118216034Y-49933220D01*
X118220000Y-49920000D01*
X118570000Y-49530000D01*
X119503563Y-48600000D01*
X120960120Y-47149002D01*
X120975828Y-47129901D01*
X121135259Y-46891295D01*
X121351295Y-46675259D01*
X121605326Y-46505521D01*
X121887590Y-46388604D01*
X121987473Y-46368736D01*
X122187238Y-46329000D01*
X122492762Y-46329000D01*
X122692527Y-46368736D01*
X122692527Y-46368736D01*
G37*
G36*
X155912527Y-46308736D02*
X156012410Y-46328604D01*
X156294674Y-46445521D01*
X156548705Y-46615259D01*
X156764741Y-46831295D01*
X156934479Y-47085326D01*
X156960854Y-47149002D01*
X157051396Y-47367591D01*
X157111000Y-47667238D01*
X157111000Y-47972762D01*
X157099065Y-48032761D01*
X157051396Y-48272410D01*
X156934479Y-48554674D01*
X156764741Y-48808705D01*
X156548705Y-49024741D01*
X156337594Y-49165801D01*
X156318659Y-49181341D01*
X155470866Y-50029134D01*
X155455320Y-50048076D01*
X155440670Y-50077990D01*
X155430000Y-50110000D01*
X155360000Y-50230000D01*
X155300000Y-50330000D01*
X155297683Y-50332979D01*
X155183334Y-50480000D01*
X155160000Y-50510000D01*
X155060000Y-50610000D01*
X155059436Y-50610537D01*
X155059430Y-50610543D01*
X154851653Y-50808426D01*
X154848413Y-50811626D01*
X154475553Y-51193580D01*
X154460237Y-51212708D01*
X154448947Y-51234456D01*
X154442117Y-51257989D01*
X154440000Y-51280897D01*
X154440000Y-66914118D01*
X154442402Y-66938504D01*
X154449515Y-66961953D01*
X154461066Y-66983564D01*
X154476612Y-67002506D01*
X154727304Y-67253198D01*
X154979120Y-67630068D01*
X155152574Y-68048823D01*
X155196787Y-68271097D01*
X155241000Y-68493370D01*
X155241000Y-68946630D01*
X155196787Y-69168903D01*
X155152574Y-69391177D01*
X154979120Y-69809932D01*
X154727304Y-70186802D01*
X154406802Y-70507304D01*
X154029932Y-70759120D01*
X153611177Y-70932574D01*
X153388903Y-70976787D01*
X153166630Y-71021000D01*
X152713370Y-71021000D01*
X152491097Y-70976787D01*
X152268823Y-70932574D01*
X151850068Y-70759120D01*
X151473198Y-70507304D01*
X151152696Y-70186802D01*
X150900880Y-69809932D01*
X150727426Y-69391177D01*
X150683213Y-69168903D01*
X150639000Y-68946630D01*
X150639000Y-68493370D01*
X150683213Y-68271097D01*
X150727426Y-68048823D01*
X150900880Y-67630068D01*
X151152696Y-67253198D01*
X151403388Y-67002506D01*
X151418934Y-66983564D01*
X151430485Y-66961953D01*
X151437598Y-66938504D01*
X151440000Y-66914118D01*
X151440000Y-50850000D01*
X151450000Y-50480000D01*
X151490000Y-50240000D01*
X151493338Y-50230321D01*
X151587493Y-49957270D01*
X151587493Y-49957269D01*
X151590000Y-49950000D01*
X151616265Y-49909727D01*
X151737351Y-49724061D01*
X151737354Y-49724057D01*
X151740000Y-49720000D01*
X151920000Y-49520000D01*
X152294933Y-49140000D01*
X152647237Y-48782935D01*
X152668551Y-48753966D01*
X152817284Y-48475092D01*
X152817285Y-48475090D01*
X152820000Y-48470000D01*
X152823600Y-48465500D01*
X152823604Y-48465494D01*
X152937775Y-48322781D01*
X152937777Y-48322779D01*
X152940000Y-48320000D01*
X152958661Y-48301465D01*
X154181466Y-47086922D01*
X154197307Y-47067687D01*
X154355259Y-46831295D01*
X154571295Y-46615259D01*
X154825326Y-46445521D01*
X155107590Y-46328604D01*
X155207473Y-46308736D01*
X155407238Y-46269000D01*
X155712762Y-46269000D01*
X155912527Y-46308736D01*
X155912527Y-46308736D01*
G37*
G36*
X131692527Y-46368736D02*
X131792410Y-46388604D01*
X132074674Y-46505521D01*
X132328705Y-46675259D01*
X132544741Y-46891295D01*
X132714479Y-47145326D01*
X132831396Y-47427590D01*
X132831396Y-47427591D01*
X132891000Y-47727238D01*
X132891000Y-48032762D01*
X132842402Y-48277079D01*
X132840000Y-48301465D01*
X132840000Y-49690000D01*
X132830000Y-50130000D01*
X132829892Y-50131510D01*
X132822884Y-50229633D01*
X132820000Y-50270000D01*
X132760000Y-50470000D01*
X132710000Y-50610000D01*
X132620000Y-50780000D01*
X132617587Y-50783379D01*
X132617584Y-50783383D01*
X132570000Y-50850000D01*
X132470000Y-50990000D01*
X131886612Y-51573388D01*
X131871066Y-51592330D01*
X131859515Y-51613941D01*
X131852402Y-51637390D01*
X131850000Y-51661776D01*
X131850000Y-64308224D01*
X131852402Y-64332610D01*
X131859515Y-64356059D01*
X131871066Y-64377670D01*
X131886612Y-64396612D01*
X132613388Y-65123388D01*
X132632330Y-65138934D01*
X132653941Y-65150485D01*
X132677390Y-65157598D01*
X132701776Y-65160000D01*
X134840020Y-65160000D01*
X134864406Y-65157598D01*
X134887855Y-65150485D01*
X134909466Y-65138934D01*
X134919319Y-65131626D01*
X135145012Y-64946404D01*
X135438656Y-64789449D01*
X135501319Y-64755955D01*
X135887934Y-64638677D01*
X136128987Y-64614935D01*
X136189249Y-64609000D01*
X136890751Y-64609000D01*
X136951013Y-64614935D01*
X137192066Y-64638677D01*
X137578681Y-64755955D01*
X137641344Y-64789449D01*
X137934988Y-64946404D01*
X138247293Y-65202707D01*
X138503596Y-65515012D01*
X138592488Y-65681319D01*
X138694045Y-65871319D01*
X138811323Y-66257934D01*
X138850923Y-66660000D01*
X138811323Y-67062066D01*
X138694045Y-67448681D01*
X138694042Y-67448686D01*
X138503596Y-67804988D01*
X138247293Y-68117293D01*
X137934988Y-68373596D01*
X137641344Y-68530551D01*
X137578681Y-68564045D01*
X137192066Y-68681323D01*
X136951013Y-68705065D01*
X136890751Y-68711000D01*
X136189249Y-68711000D01*
X136128987Y-68705065D01*
X135887934Y-68681323D01*
X135501319Y-68564045D01*
X135438656Y-68530551D01*
X135145012Y-68373596D01*
X134919319Y-68188374D01*
X134898945Y-68174760D01*
X134876306Y-68165382D01*
X134852272Y-68160602D01*
X134840020Y-68160000D01*
X132430000Y-68160000D01*
X132429544Y-68159992D01*
X132429492Y-68159992D01*
X132139027Y-68155150D01*
X131830000Y-68150000D01*
X131340000Y-68010000D01*
X131040000Y-67770000D01*
X129090000Y-65810000D01*
X128928000Y-65450000D01*
X128913751Y-65418336D01*
X128913751Y-65418335D01*
X128910000Y-65410000D01*
X128860000Y-65030000D01*
X128859884Y-64948934D01*
X128840003Y-51092210D01*
X128840003Y-51092205D01*
X128840000Y-51090000D01*
X128870000Y-50660000D01*
X129030000Y-50230000D01*
X129137770Y-50115578D01*
X129299791Y-49943555D01*
X129806351Y-49405726D01*
X129821319Y-49386331D01*
X129832219Y-49364384D01*
X129838627Y-49340732D01*
X129840351Y-49320919D01*
X129840826Y-49254480D01*
X129847362Y-48339379D01*
X129844964Y-48314109D01*
X129789000Y-48032760D01*
X129789000Y-47727240D01*
X129800935Y-47667240D01*
X129848604Y-47427591D01*
X129848604Y-47427590D01*
X129965521Y-47145326D01*
X130135259Y-46891295D01*
X130351295Y-46675259D01*
X130605326Y-46505521D01*
X130887590Y-46388604D01*
X130987473Y-46368736D01*
X131187238Y-46329000D01*
X131492762Y-46329000D01*
X131692527Y-46368736D01*
X131692527Y-46368736D01*
G37*
G36*
X164912527Y-46308736D02*
X165012410Y-46328604D01*
X165294674Y-46445521D01*
X165548705Y-46615259D01*
X165764741Y-46831295D01*
X165934479Y-47085326D01*
X165960854Y-47149002D01*
X166051396Y-47367591D01*
X166111000Y-47667238D01*
X166111000Y-47972762D01*
X166052601Y-48266353D01*
X166050199Y-48290816D01*
X166059968Y-64058269D01*
X166062385Y-64082654D01*
X166069513Y-64106099D01*
X166081077Y-64127703D01*
X166096580Y-64146580D01*
X166883388Y-64933388D01*
X166902330Y-64948934D01*
X166923941Y-64960485D01*
X166947390Y-64967598D01*
X166971776Y-64970000D01*
X168240020Y-64970000D01*
X168264406Y-64967598D01*
X168287855Y-64960485D01*
X168309466Y-64948934D01*
X168319319Y-64941626D01*
X168545012Y-64756404D01*
X168858441Y-64588874D01*
X168901319Y-64565955D01*
X169287934Y-64448677D01*
X169528987Y-64424935D01*
X169589249Y-64419000D01*
X170290751Y-64419000D01*
X170351013Y-64424935D01*
X170592066Y-64448677D01*
X170978681Y-64565955D01*
X171021559Y-64588874D01*
X171334988Y-64756404D01*
X171647293Y-65012707D01*
X171903596Y-65325012D01*
X172060551Y-65618656D01*
X172094045Y-65681319D01*
X172211323Y-66067934D01*
X172250923Y-66470000D01*
X172211323Y-66872066D01*
X172094045Y-67258681D01*
X172094042Y-67258686D01*
X171903596Y-67614988D01*
X171647293Y-67927293D01*
X171334988Y-68183596D01*
X171041344Y-68340551D01*
X170978681Y-68374045D01*
X170592066Y-68491323D01*
X170351013Y-68515065D01*
X170290751Y-68521000D01*
X169589249Y-68521000D01*
X169528987Y-68515065D01*
X169287934Y-68491323D01*
X168901319Y-68374045D01*
X168838656Y-68340551D01*
X168545012Y-68183596D01*
X168319319Y-67998374D01*
X168298945Y-67984760D01*
X168276306Y-67975382D01*
X168252272Y-67970602D01*
X168240020Y-67970000D01*
X166280000Y-67970000D01*
X166010000Y-67950000D01*
X165620000Y-67810000D01*
X165400000Y-67680000D01*
X165030000Y-67320000D01*
X165029829Y-67319831D01*
X165029787Y-67319789D01*
X163561627Y-65861616D01*
X163561626Y-65861615D01*
X163560000Y-65860000D01*
X163360000Y-65630000D01*
X163357785Y-65626678D01*
X163357780Y-65626671D01*
X163243176Y-65454764D01*
X163240000Y-65450000D01*
X163226430Y-65418336D01*
X163122955Y-65176895D01*
X163120000Y-65170000D01*
X163070000Y-64870000D01*
X163060000Y-64590000D01*
X163060000Y-48241465D01*
X163057598Y-48217079D01*
X163009000Y-47972762D01*
X163009000Y-47667238D01*
X163068604Y-47367591D01*
X163159146Y-47149002D01*
X163185521Y-47085326D01*
X163355259Y-46831295D01*
X163571295Y-46615259D01*
X163825326Y-46445521D01*
X164107590Y-46328604D01*
X164207473Y-46308736D01*
X164407238Y-46269000D01*
X164712762Y-46269000D01*
X164912527Y-46308736D01*
X164912527Y-46308736D01*
G37*
G36*
X136951013Y-56864935D02*
X137192066Y-56888677D01*
X137578681Y-57005955D01*
X137641344Y-57039449D01*
X137934988Y-57196404D01*
X138247293Y-57452707D01*
X138503596Y-57765012D01*
X138592488Y-57931319D01*
X138694045Y-58121319D01*
X138811323Y-58507934D01*
X138850923Y-58910000D01*
X138811323Y-59312066D01*
X138694045Y-59698681D01*
X138694042Y-59698686D01*
X138503596Y-60054988D01*
X138247293Y-60367293D01*
X137934988Y-60623596D01*
X137641344Y-60780551D01*
X137578681Y-60814045D01*
X137192066Y-60931323D01*
X136951013Y-60955065D01*
X136890751Y-60961000D01*
X136189249Y-60961000D01*
X136128987Y-60955065D01*
X135887934Y-60931323D01*
X135501319Y-60814045D01*
X135438656Y-60780551D01*
X135145012Y-60623596D01*
X134832707Y-60367293D01*
X134576404Y-60054988D01*
X134385958Y-59698686D01*
X134385955Y-59698681D01*
X134268677Y-59312066D01*
X134229077Y-58910000D01*
X134268677Y-58507934D01*
X134385955Y-58121319D01*
X134487512Y-57931319D01*
X134576404Y-57765012D01*
X134832707Y-57452707D01*
X135145012Y-57196404D01*
X135438656Y-57039449D01*
X135501319Y-57005955D01*
X135887934Y-56888677D01*
X136128987Y-56864935D01*
X136189249Y-56859000D01*
X136890751Y-56859000D01*
X136951013Y-56864935D01*
X136951013Y-56864935D01*
G37*
G36*
X170351013Y-56674935D02*
X170592066Y-56698677D01*
X170978681Y-56815955D01*
X171041344Y-56849449D01*
X171334988Y-57006404D01*
X171647293Y-57262707D01*
X171903596Y-57575012D01*
X172060551Y-57868656D01*
X172094045Y-57931319D01*
X172211323Y-58317934D01*
X172250923Y-58720000D01*
X172211323Y-59122066D01*
X172094045Y-59508681D01*
X172094042Y-59508686D01*
X171903596Y-59864988D01*
X171647293Y-60177293D01*
X171334988Y-60433596D01*
X171041344Y-60590551D01*
X170978681Y-60624045D01*
X170592066Y-60741323D01*
X170351013Y-60765065D01*
X170290751Y-60771000D01*
X169589249Y-60771000D01*
X169528987Y-60765065D01*
X169287934Y-60741323D01*
X168901319Y-60624045D01*
X168838656Y-60590551D01*
X168545012Y-60433596D01*
X168232707Y-60177293D01*
X167976404Y-59864988D01*
X167785958Y-59508686D01*
X167785955Y-59508681D01*
X167668677Y-59122066D01*
X167629077Y-58720000D01*
X167668677Y-58317934D01*
X167785955Y-57931319D01*
X167819449Y-57868656D01*
X167976404Y-57575012D01*
X168232707Y-57262707D01*
X168545012Y-57006404D01*
X168838656Y-56849449D01*
X168901319Y-56815955D01*
X169287934Y-56698677D01*
X169528987Y-56674935D01*
X169589249Y-56669000D01*
X170290751Y-56669000D01*
X170351013Y-56674935D01*
X170351013Y-56674935D01*
G37*
G36*
X112525331Y-41268211D02*
X112853092Y-41403974D01*
X113148073Y-41601074D01*
X113398926Y-41851927D01*
X113596026Y-42146908D01*
X113731789Y-42474669D01*
X113801000Y-42822616D01*
X113801000Y-43177384D01*
X113731789Y-43525331D01*
X113596026Y-43853092D01*
X113398926Y-44148073D01*
X113148073Y-44398926D01*
X112853092Y-44596026D01*
X112525331Y-44731789D01*
X112177384Y-44801000D01*
X111822616Y-44801000D01*
X111474669Y-44731789D01*
X111146908Y-44596026D01*
X110851927Y-44398926D01*
X110601074Y-44148073D01*
X110403974Y-43853092D01*
X110268211Y-43525331D01*
X110199000Y-43177384D01*
X110199000Y-42822616D01*
X110268211Y-42474669D01*
X110403974Y-42146908D01*
X110601074Y-41851927D01*
X110851927Y-41601074D01*
X111146908Y-41403974D01*
X111474669Y-41268211D01*
X111822616Y-41199000D01*
X112177384Y-41199000D01*
X112525331Y-41268211D01*
X112525331Y-41268211D01*
G37*
G36*
X178525331Y-41268211D02*
X178853092Y-41403974D01*
X179148073Y-41601074D01*
X179398926Y-41851927D01*
X179596026Y-42146908D01*
X179731789Y-42474669D01*
X179801000Y-42822616D01*
X179801000Y-43177384D01*
X179731789Y-43525331D01*
X179596026Y-43853092D01*
X179398926Y-44148073D01*
X179148073Y-44398926D01*
X178853092Y-44596026D01*
X178525331Y-44731789D01*
X178177384Y-44801000D01*
X177822616Y-44801000D01*
X177474669Y-44731789D01*
X177146908Y-44596026D01*
X176851927Y-44398926D01*
X176601074Y-44148073D01*
X176403974Y-43853092D01*
X176268211Y-43525331D01*
X176199000Y-43177384D01*
X176199000Y-42822616D01*
X176268211Y-42474669D01*
X176403974Y-42146908D01*
X176601074Y-41851927D01*
X176851927Y-41601074D01*
X177146908Y-41403974D01*
X177474669Y-41268211D01*
X177822616Y-41199000D01*
X178177384Y-41199000D01*
X178525331Y-41268211D01*
X178525331Y-41268211D01*
G37*
M02*
