G04 #@! TF.GenerationSoftware,KiCad,Pcbnew,(5.0.1)-3*
G04 #@! TF.CreationDate,2022-08-31T13:01:13+05:45*
G04 #@! TF.ProjectId,Relay-board,52656C61792D626F6172642E6B696361,rev?*
G04 #@! TF.SameCoordinates,Original*
G04 #@! TF.FileFunction,Copper,L2,Bot,Signal*
G04 #@! TF.FilePolarity,Positive*
%FSLAX46Y46*%
G04 Gerber Fmt 4.6, Leading zero omitted, Abs format (unit mm)*
G04 Created by KiCad (PCBNEW (5.0.1)-3) date 8/31/2022 1:01:13 PM*
%MOMM*%
%LPD*%
G01*
G04 APERTURE LIST*
G04 #@! TA.AperFunction,WasherPad*
%ADD10C,3.500000*%
G04 #@! TD*
G04 #@! TA.AperFunction,ComponentPad*
%ADD11C,3.000000*%
G04 #@! TD*
G04 #@! TA.AperFunction,ComponentPad*
%ADD12R,3.000000X3.000000*%
G04 #@! TD*
G04 #@! TA.AperFunction,ComponentPad*
%ADD13R,1.700000X1.700000*%
G04 #@! TD*
G04 #@! TA.AperFunction,ComponentPad*
%ADD14O,1.700000X1.700000*%
G04 #@! TD*
G04 #@! TA.AperFunction,ComponentPad*
%ADD15O,4.500000X4.000000*%
G04 #@! TD*
G04 #@! TA.AperFunction,ComponentPad*
%ADD16C,2.000000*%
G04 #@! TD*
G04 #@! TA.AperFunction,ComponentPad*
%ADD17C,4.500000*%
G04 #@! TD*
G04 #@! TA.AperFunction,ViaPad*
%ADD18C,2.000000*%
G04 #@! TD*
G04 #@! TA.AperFunction,Conductor*
%ADD19C,3.000000*%
G04 #@! TD*
G04 #@! TA.AperFunction,Conductor*
%ADD20C,0.600000*%
G04 #@! TD*
G04 #@! TA.AperFunction,Conductor*
%ADD21C,0.254000*%
G04 #@! TD*
G04 APERTURE END LIST*
D10*
G04 #@! TO.P,MH3,*
G04 #@! TO.N,*
X178000000Y-98000000D03*
G04 #@! TD*
G04 #@! TO.P,MH4,*
G04 #@! TO.N,*
X112000000Y-98000000D03*
G04 #@! TD*
G04 #@! TO.P,MH1,*
G04 #@! TO.N,*
X112000000Y-43000000D03*
G04 #@! TD*
D11*
G04 #@! TO.P,J1,1*
G04 #@! TO.N,COM1*
X155560000Y-47820000D03*
G04 #@! TO.P,J1,2*
G04 #@! TO.N,NO1*
X164560000Y-47820000D03*
G04 #@! TD*
G04 #@! TO.P,J2,2*
G04 #@! TO.N,GND*
X142830000Y-97000000D03*
D12*
G04 #@! TO.P,J2,1*
G04 #@! TO.N,VPOWER*
X137750000Y-97000000D03*
G04 #@! TD*
D11*
G04 #@! TO.P,J4,2*
G04 #@! TO.N,NO2*
X131340000Y-47880000D03*
G04 #@! TO.P,J4,1*
G04 #@! TO.N,COM2*
X122340000Y-47880000D03*
G04 #@! TD*
D13*
G04 #@! TO.P,J3,1*
G04 #@! TO.N,IN1*
X149250000Y-99000000D03*
D14*
G04 #@! TO.P,J3,2*
G04 #@! TO.N,IN2*
X151790000Y-99000000D03*
G04 #@! TO.P,J3,3*
G04 #@! TO.N,GND*
X154330000Y-99000000D03*
G04 #@! TD*
D10*
G04 #@! TO.P,MH2,*
G04 #@! TO.N,*
X178000000Y-43000000D03*
G04 #@! TD*
D15*
G04 #@! TO.P,RELAY1,6*
G04 #@! TO.N,N/C*
X160940000Y-83720000D03*
G04 #@! TO.P,RELAY1,5*
X169940000Y-58720000D03*
G04 #@! TO.P,RELAY1,4*
G04 #@! TO.N,NO1*
X169940000Y-66470000D03*
D16*
G04 #@! TO.P,RELAY1,3*
G04 #@! TO.N,Net-(D1-Pad2)*
X165940000Y-81720000D03*
G04 #@! TO.P,RELAY1,2*
G04 #@! TO.N,VPOWER*
X155940000Y-81720000D03*
D17*
G04 #@! TO.P,RELAY1,1*
G04 #@! TO.N,COM1*
X152940000Y-68720000D03*
G04 #@! TD*
G04 #@! TO.P,RELAY2,1*
G04 #@! TO.N,COM2*
X119540000Y-68910000D03*
D16*
G04 #@! TO.P,RELAY2,2*
G04 #@! TO.N,VPOWER*
X122540000Y-81910000D03*
G04 #@! TO.P,RELAY2,3*
G04 #@! TO.N,Net-(D2-Pad2)*
X132540000Y-81910000D03*
D15*
G04 #@! TO.P,RELAY2,4*
G04 #@! TO.N,NO2*
X136540000Y-66660000D03*
G04 #@! TO.P,RELAY2,5*
G04 #@! TO.N,N/C*
X136540000Y-58910000D03*
G04 #@! TO.P,RELAY2,6*
X127540000Y-83910000D03*
G04 #@! TD*
D18*
G04 #@! TO.N,GND*
X159000000Y-95500000D03*
X144500000Y-82500000D03*
X145000000Y-90000000D03*
X170000000Y-80500000D03*
X120000000Y-90500000D03*
G04 #@! TO.N,IN2*
X118210000Y-99280000D03*
G04 #@! TO.N,Net-(R3-Pad2)*
X167570000Y-97210000D03*
X172940000Y-92440000D03*
G04 #@! TO.N,Net-(R6-Pad2)*
X129000000Y-98000000D03*
X134234738Y-90941162D03*
G04 #@! TD*
D19*
G04 #@! TO.N,COM1*
X154060001Y-49319999D02*
X154060001Y-49489999D01*
X155560000Y-47820000D02*
X154060001Y-49319999D01*
X152940000Y-50610000D02*
X152940000Y-68720000D01*
X154060001Y-49489999D02*
X152940000Y-50610000D01*
G04 #@! TO.N,NO1*
X164560000Y-47820000D02*
X164560000Y-64730000D01*
X164560000Y-64730000D02*
X166300000Y-66470000D01*
X166300000Y-66470000D02*
X169940000Y-66470000D01*
D20*
G04 #@! TO.N,GND*
X142830000Y-94878680D02*
X142830000Y-97000000D01*
X142830000Y-86300000D02*
X142830000Y-94878680D01*
X141400000Y-84870000D02*
X142830000Y-86300000D01*
X140050000Y-84870000D02*
X141400000Y-84870000D01*
X118760000Y-94120000D02*
X122020000Y-94120000D01*
X122020000Y-94120000D02*
X123090000Y-93050000D01*
X123090000Y-93050000D02*
X123090000Y-89520000D01*
X123090000Y-89520000D02*
X124560000Y-88050000D01*
X124560000Y-88050000D02*
X134400000Y-88050000D01*
X137580000Y-84870000D02*
X140050000Y-84870000D01*
X134400000Y-88050000D02*
X137580000Y-84870000D01*
X157980000Y-94190000D02*
X156420000Y-94190000D01*
X159020000Y-93150000D02*
X157980000Y-94190000D01*
X159020000Y-90510000D02*
X159020000Y-93150000D01*
X158190000Y-89680000D02*
X159020000Y-90510000D01*
X142830000Y-94878680D02*
X148028680Y-89680000D01*
X148028680Y-89680000D02*
X158190000Y-89680000D01*
X144500000Y-82500000D02*
X144500000Y-89500000D01*
X144500000Y-89500000D02*
X145000000Y-90000000D01*
X170000000Y-80500000D02*
X167000000Y-83500000D01*
X167000000Y-83500000D02*
X167000000Y-89500000D01*
X167000000Y-89500000D02*
X166500000Y-90000000D01*
G04 #@! TO.N,IN2*
X151790000Y-96390000D02*
X151790000Y-99000000D01*
X151390000Y-95990000D02*
X151790000Y-96390000D01*
X147550000Y-95990000D02*
X151390000Y-95990000D01*
X118210000Y-99280000D02*
X118280000Y-99280000D01*
X118280000Y-99280000D02*
X119000000Y-100000000D01*
X119000000Y-100000000D02*
X145010000Y-100000000D01*
X145010000Y-100000000D02*
X146720000Y-98290000D01*
X146720000Y-98290000D02*
X146720000Y-96820000D01*
X146720000Y-96820000D02*
X147550000Y-95990000D01*
D19*
G04 #@! TO.N,NO2*
X131340000Y-50001320D02*
X130350000Y-50991320D01*
X131340000Y-47880000D02*
X131340000Y-50001320D01*
X130350000Y-50991320D02*
X130350000Y-64980000D01*
X132030000Y-66660000D02*
X136540000Y-66660000D01*
X130350000Y-64980000D02*
X132030000Y-66660000D01*
G04 #@! TO.N,COM2*
X119540000Y-50680000D02*
X119540000Y-68910000D01*
X122340000Y-47880000D02*
X119540000Y-50680000D01*
D20*
G04 #@! TO.N,Net-(R3-Pad2)*
X172940000Y-94500000D02*
X172940000Y-92440000D01*
X171500000Y-97210000D02*
X172940000Y-95770000D01*
X167570000Y-97210000D02*
X171500000Y-97210000D01*
X172940000Y-95770000D02*
X172940000Y-94500000D01*
G04 #@! TO.N,Net-(R6-Pad2)*
X133120000Y-95690000D02*
X133120000Y-92055900D01*
X133120000Y-92055900D02*
X134234738Y-90941162D01*
X129000000Y-98000000D02*
X132500000Y-98000000D01*
X133120000Y-97380000D02*
X133120000Y-95690000D01*
X132500000Y-98000000D02*
X133120000Y-97380000D01*
G04 #@! TD*
D21*
G04 #@! TO.N,GND*
G36*
X169441298Y-90102242D02*
X168813000Y-91619089D01*
X168813000Y-93257835D01*
X168390911Y-93083000D01*
X166749089Y-93083000D01*
X165232242Y-93711298D01*
X164071298Y-94872242D01*
X163443000Y-96389089D01*
X163443000Y-97773000D01*
X155600848Y-97773000D01*
X155536252Y-97448252D01*
X155217000Y-96970458D01*
X155217000Y-96727524D01*
X155284138Y-96389999D01*
X155215086Y-96042852D01*
X155018163Y-95052851D01*
X154260729Y-93919271D01*
X154020947Y-93759054D01*
X153860729Y-93519271D01*
X152727149Y-92761837D01*
X151727526Y-92563000D01*
X151390000Y-92495862D01*
X151052474Y-92563000D01*
X147887524Y-92563000D01*
X147549999Y-92495862D01*
X147212474Y-92563000D01*
X146212851Y-92761837D01*
X145079271Y-93519271D01*
X144888075Y-93805416D01*
X144535414Y-94158077D01*
X144249272Y-94349271D01*
X143765365Y-95073487D01*
X143213813Y-94857277D01*
X142364613Y-94873503D01*
X142317523Y-94893008D01*
X142195569Y-94279905D01*
X141504441Y-93245559D01*
X140470095Y-92554431D01*
X139250000Y-92311739D01*
X138134059Y-92311739D01*
X138361738Y-91762073D01*
X138361738Y-90120251D01*
X137950320Y-89127000D01*
X170416540Y-89127000D01*
X169441298Y-90102242D01*
X169441298Y-90102242D01*
G37*
X169441298Y-90102242D02*
X168813000Y-91619089D01*
X168813000Y-93257835D01*
X168390911Y-93083000D01*
X166749089Y-93083000D01*
X165232242Y-93711298D01*
X164071298Y-94872242D01*
X163443000Y-96389089D01*
X163443000Y-97773000D01*
X155600848Y-97773000D01*
X155536252Y-97448252D01*
X155217000Y-96970458D01*
X155217000Y-96727524D01*
X155284138Y-96389999D01*
X155215086Y-96042852D01*
X155018163Y-95052851D01*
X154260729Y-93919271D01*
X154020947Y-93759054D01*
X153860729Y-93519271D01*
X152727149Y-92761837D01*
X151727526Y-92563000D01*
X151390000Y-92495862D01*
X151052474Y-92563000D01*
X147887524Y-92563000D01*
X147549999Y-92495862D01*
X147212474Y-92563000D01*
X146212851Y-92761837D01*
X145079271Y-93519271D01*
X144888075Y-93805416D01*
X144535414Y-94158077D01*
X144249272Y-94349271D01*
X143765365Y-95073487D01*
X143213813Y-94857277D01*
X142364613Y-94873503D01*
X142317523Y-94893008D01*
X142195569Y-94279905D01*
X141504441Y-93245559D01*
X140470095Y-92554431D01*
X139250000Y-92311739D01*
X138134059Y-92311739D01*
X138361738Y-91762073D01*
X138361738Y-90120251D01*
X137950320Y-89127000D01*
X170416540Y-89127000D01*
X169441298Y-90102242D01*
G36*
X130107738Y-90120251D02*
X130107738Y-90395634D01*
X129891837Y-90718752D01*
X129625862Y-92055900D01*
X129693001Y-92393430D01*
X129693000Y-93873000D01*
X128179089Y-93873000D01*
X126662242Y-94501298D01*
X125501298Y-95662242D01*
X125124050Y-96573000D01*
X121339460Y-96573000D01*
X120547758Y-95781298D01*
X119030911Y-95153000D01*
X117389089Y-95153000D01*
X116288408Y-95608917D01*
X116134521Y-95237401D01*
X115227000Y-94329880D01*
X115227000Y-89127000D01*
X130519156Y-89127000D01*
X130107738Y-90120251D01*
X130107738Y-90120251D01*
G37*
X130107738Y-90120251D02*
X130107738Y-90395634D01*
X129891837Y-90718752D01*
X129625862Y-92055900D01*
X129693001Y-92393430D01*
X129693000Y-93873000D01*
X128179089Y-93873000D01*
X126662242Y-94501298D01*
X125501298Y-95662242D01*
X125124050Y-96573000D01*
X121339460Y-96573000D01*
X120547758Y-95781298D01*
X119030911Y-95153000D01*
X117389089Y-95153000D01*
X116288408Y-95608917D01*
X116134521Y-95237401D01*
X115227000Y-94329880D01*
X115227000Y-89127000D01*
X130519156Y-89127000D01*
X130107738Y-90120251D01*
G04 #@! TD*
M02*
