M48
;DRILL file {KiCad (5.0.1)-3} date 8/31/2022 1:01:16 PM
;FORMAT={-:-/ absolute / metric / decimal}
FMAT,2
METRIC,TZ
T1C0.700
T2C1.000
T3C1.300
T4C1.360
T5C1.520
T6C2.000
%
G90
G05
M71
T1
X118.21Y-99.28
X120.Y-90.5
X129.Y-98.
X134.235Y-90.941
X144.5Y-82.5
X145.Y-90.
X159.Y-95.5
X167.57Y-97.21
X170.Y-80.5
X172.94Y-92.44
T2
X149.25Y-99.
X151.79Y-99.
X154.33Y-99.
T3
X122.54Y-81.91
X132.54Y-81.91
X155.94Y-81.72
X165.94Y-81.72
T4
X122.34Y-47.88
X131.34Y-47.88
X155.56Y-47.82
X164.56Y-47.82
T5
X137.75Y-97.
X142.83Y-97.
T6
X119.54Y-68.91
X127.54Y-83.91
X152.94Y-68.72
X160.94Y-83.72
T6
X136.54Y-58.91G85X136.54Y-58.91
G05
X136.54Y-66.66G85X136.54Y-66.66
G05
X169.94Y-58.72G85X169.94Y-58.72
G05
X169.94Y-66.47G85X169.94Y-66.47
G05
T0
M30
